<svg id="svg" version="1.1" xmlns="http://www.w3.org/2000/svg" style="display: block;" viewBox="0 0 3730 1130"><path d="M0 0 C1230.9 0 2461.8 0 3730 0 C3730 372.9 3730 745.8 3730 1130 C2499.1 1130 1268.2 1130 0 1130 C0 757.1 0 384.2 0 0 Z " transform="translate(0,0)" style="fill: #000000;"/><path d="M0 0 C65.01 0 130.02 0 197 0 C198.31935209 4.61773232 199.32666627 8.45417299 199.94213867 13.10400391 C200.17870934 14.86176147 200.17870934 14.86176147 200.4200592 16.6550293 C200.58436935 17.91613525 200.7486795 19.17724121 200.91796875 20.4765625 C201.09720249 21.8232206 201.27689612 23.16981756 201.45701599 24.51635742 C201.93948275 28.13294196 202.41552937 31.75034539 202.89044952 35.36792755 C203.39025322 39.1655756 203.89641383 42.96237633 204.40185547 46.75927734 C206.25166908 60.67070332 208.07804596 74.58520807 209.90234375 88.5 C210.4762276 92.87504402 211.05050767 97.25003584 211.625 101.625 C211.76703857 102.707883 211.90907715 103.79076599 212.05541992 104.90646362 C214.12102357 120.63328516 216.31958943 136.33648478 218.60113525 152.03326416 C222.07443202 175.99234307 225.21711094 199.99558168 228.39680481 223.9949646 C231.60465095 248.20453184 234.84366818 272.40505275 238.35690308 296.5725708 C240.32589735 310.12230832 242.15515243 323.68232498 243.86331177 337.2673645 C245.54367429 350.62640944 247.36895332 363.96093061 249.25177002 377.29284668 C251.40543533 392.55862483 253.43895994 407.83820507 255.4375 423.125 C257.57945649 439.49601189 259.81164258 455.84886231 262.1875 472.1875 C265.61716699 495.78592008 268.74229784 519.42324724 271.875 543.0625 C275.3450615 569.24276139 278.84862452 595.41558433 282.5625 621.5625 C285.95683319 645.46843216 289.26015689 669.3855685 292.50971603 693.31159592 C292.86886766 695.95486744 293.22856224 698.59806454 293.58840942 701.24124146 C295.80617833 717.53651092 298.01106765 733.83090754 300.01766968 750.15379333 C300.97850695 757.93692199 302.05716197 765.69931333 303.1925354 773.45870972 C303.73219536 777.15126941 304.26261278 780.84515674 304.79296875 784.5390625 C304.8969548 785.26300705 305.00094086 785.9869516 305.108078 786.73283386 C306.04789681 793.29598657 306.9475292 799.86404309 307.8125 806.4375 C307.93625 807.36570557 308.06 808.29391113 308.1875 809.25024414 C308.29707031 810.09449951 308.40664062 810.93875488 308.51953125 811.80859375 C308.66032104 812.88838501 308.66032104 812.88838501 308.80395508 813.98999023 C308.99852976 815.98492597 309 817.99559787 309 820 C309.66 820 310.32 820 311 820 C311.27384521 819.27345215 311.54769043 818.5469043 311.82983398 817.79833984 C312.95329245 815.11169663 314.2330803 812.72554699 315.72265625 810.2265625 C316.25632812 809.32744141 316.79 808.42832031 317.33984375 807.50195312 C317.90832031 806.55255859 318.47679687 805.60316406 319.0625 804.625 C319.6503125 803.63693359 320.238125 802.64886719 320.84375 801.63085938 C324.39760965 795.66239705 327.96869495 789.7041522 331.55175781 783.75317383 C334.83665713 778.29140041 338.07472731 772.80230662 341.3125 767.3125 C345.51314157 760.19094719 349.73778124 753.08487083 354 746 C358.19957829 739.01917979 362.36211534 732.01756226 366.5 725 C372.17658164 715.37438148 377.91070595 705.78446334 383.67138672 696.20898438 C385.55432685 693.07836286 387.43356535 689.94552658 389.3125 686.8125 C392.01688847 682.30309529 394.72406222 677.79537927 397.43359375 673.2890625 C405.10060761 660.53230796 412.71370643 647.74557588 420.27392578 634.92529297 C431.63320946 615.67395818 443.08641998 596.48049915 454.60839844 577.32617188 C460.83124982 566.97974427 467.01246154 556.61043365 473.14501953 546.21020508 C476.73667254 540.123902 480.35698316 534.05568235 484 528 C488.1369318 521.12322534 492.2374202 514.22610072 496.3125 507.3125 C504.02213645 494.23716121 511.84630086 481.23097466 519.66992188 468.22363281 C525.30053604 458.86109996 530.90601035 449.4859892 536.43408203 440.0625 C540.12286981 433.77844444 543.86716299 427.52887799 547.62451172 421.28564453 C555.8973237 407.53873901 564.14891649 393.78066149 572.29589844 379.95874023 C576.32327295 373.13086942 580.39481913 366.33051741 584.48120117 359.5378418 C588.18408876 353.37608613 591.84866779 347.19242547 595.5 341 C599.51482616 334.1919428 603.55027866 327.39738027 607.625 320.625 C613.81518088 310.33627335 619.94034417 300.00917779 626.06298828 289.68017578 C632.35154915 279.07415323 638.69184523 268.49990588 645.046875 257.93359375 C650.79357884 248.37793136 656.49252954 238.79545574 662.15673828 229.19067383 C665.62135757 223.32032556 669.11079164 217.46578109 672.625 211.625 C678.81518088 201.33627335 684.94034417 191.00917779 691.06298828 180.68017578 C697.35154915 170.07415323 703.69184523 159.49990588 710.046875 148.93359375 C715.79357884 139.37793136 721.49252954 129.79545574 727.15673828 120.19067383 C730.62135757 114.32032556 734.11079164 108.46578109 737.625 102.625 C743.81518088 92.33627335 749.94034417 82.00917779 756.06298828 71.68017578 C761.34646182 62.76931709 766.6632937 53.87906975 772 45 C774.10343752 41.49587607 774.10343752 41.49587607 776.19718266 37.98596287 C777.14446389 36.41958897 778.11360203 34.86621491 779.10464382 33.32715511 C782.1434951 28.51648738 784.4449787 23.98822327 786.23731995 18.57948303 C788.95746831 11.36293939 792.20757234 4.1958045 799 0 C812.33075663 -5.07852393 828.97715299 -2.97327461 842.92601848 -2.53484845 C848.77088801 -2.37774075 854.61612874 -2.36381898 860.46278381 -2.33421326 C871.51505839 -2.25673748 882.56109454 -2.05194234 893.61063057 -1.80047601 C906.19751983 -1.52028916 918.78471957 -1.38340478 931.37395465 -1.25809014 C957.25275214 -0.99730221 983.12602553 -0.55805827 1009 0 C1007.65675957 3.43904023 1006.19933389 6.52501044 1004.26953125 9.67578125 C1003.72192139 10.57321045 1003.17431152 11.47063965 1002.61010742 12.39526367 C1001.72029175 13.83929565 1001.72029175 13.83929565 1000.8125 15.3125 C1000.19028564 16.32868408 999.56807129 17.34486816 998.92700195 18.3918457 C993.943948 26.51230877 988.88861881 34.58701435 983.82397461 42.65673828 C978.93759874 50.45859938 974.14179253 58.31231283 969.375 66.1875 C962.82907905 77.00133423 956.22051568 87.77387194 949.54736328 98.50976562 C936.92278509 118.82701042 924.34588421 139.17492678 911.9375 159.625 C906.641809 168.35097372 901.25030612 177.01303857 895.82275391 185.6574707 C890.53632589 194.09707509 885.36811628 202.60489591 880.21566772 211.1265564 C875.87923981 218.29565583 871.50378802 225.43454599 867 232.5 C862.07639623 240.22499404 857.3053078 248.03833492 852.5625 255.875 C845.4482187 267.62936317 838.25356446 279.33102448 831 291 C824.28811461 301.80615607 817.60411658 312.62756933 811 323.5 C803.86950789 335.23900857 796.6408286 346.91562235 789.39550781 358.58398438 C782.62406493 369.49238779 775.9017262 380.4284456 769.23730469 391.40258789 C764.75812782 398.77181732 760.23058801 406.10996968 755.68359375 413.4375 C752.26729995 418.9452322 748.87350083 424.46596312 745.5 430 C741.62887396 436.34878696 737.73025737 442.67988359 733.8125 449 C723.68749107 465.33673609 713.60245397 481.69766843 703.625 498.125 C698.98018105 505.77118596 694.2857188 513.3825733 689.53125 520.9609375 C680.96559521 534.61583814 672.55239919 548.36214699 664.20028687 562.14834595 C658.95035815 570.81201284 653.64015736 579.43322129 648.24853516 588.00927734 C640.15573421 600.91281643 632.22349567 613.91292951 624.33706665 626.94317627 C619.36536644 635.15331579 614.32108814 643.31180748 609.17114258 651.41162109 C603.45390109 660.41030972 597.9270158 669.52365851 592.39941406 678.63964844 C585.89574292 689.36520067 579.35687797 700.06400797 572.6875 710.6875 C566.84066424 720.00121932 561.10786956 729.37981742 555.41781616 738.78964233 C549.9174919 747.88232561 544.32524385 756.91320134 538.6706543 765.91088867 C533.80783128 773.66581508 529.04833961 781.47974528 524.3125 789.3125 C519.61184664 797.08697918 514.88364982 804.83862628 510 812.5 C505.07639623 820.22499404 500.3053078 828.03833492 495.5625 835.875 C488.4482187 847.62936317 481.25356446 859.33102448 474 871 C467.28811461 881.80615607 460.60411658 892.62756933 454 903.5 C446.86950789 915.23900857 439.6408286 926.91562235 432.39550781 938.58398438 C425.55196294 949.60853995 418.760968 960.66267893 412.02636719 971.75415039 C408.26575299 977.94064484 404.46081709 984.09648242 400.60986328 990.22705078 C397.12984097 995.77320312 393.71598767 1001.35842334 390.30908203 1006.94970703 C386.79488076 1012.71211643 383.24668253 1018.45278459 379.6875 1024.1875 C374.23809021 1032.96930045 368.85171188 1041.78836331 363.49291992 1050.62573242 C362.93451416 1051.54588135 362.3761084 1052.46603027 361.80078125 1053.4140625 C361.30747314 1054.2282666 360.81416504 1055.0424707 360.3059082 1055.88134766 C359.240139 1057.61040825 358.12667169 1059.30999247 357 1061 C354.4358458 1061.29456089 352.11273334 1061.39133988 349.5463562 1061.36076355 C348.7687724 1061.36332682 347.9911886 1061.3658901 347.19004166 1061.36853105 C344.57033474 1061.37349385 341.95119727 1061.35693535 339.33154297 1061.34057617 C337.45935072 1061.33973044 335.58715748 1061.34020399 333.71496582 1061.34190369 C328.62011894 1061.34276716 323.52548241 1061.32508458 318.43068457 1061.30418181 C313.11087443 1061.28547351 307.79105988 1061.2836692 302.47122192 1061.28010559 C292.39185754 1061.2707679 282.31259036 1061.24613083 272.23326886 1061.21605712 C260.7606612 1061.18256669 249.28804899 1061.1660406 237.81540465 1061.15097082 C214.21021581 1061.11958275 190.60511334 1061.06678881 167 1061 C166.52045858 1058.46308343 166.04194067 1055.92598076 165.56399536 1053.38876343 C165.36223552 1052.32225382 165.36223552 1052.32225382 165.15639973 1051.23419857 C164.00284362 1045.10327447 162.99522271 1038.95625344 162.0546875 1032.7890625 C161.88359467 1031.68164703 161.71250183 1030.57423157 161.53622437 1029.43325806 C161.17018071 1027.0618423 160.80530672 1024.69024575 160.44152832 1022.31848145 C159.86152408 1018.53714371 159.27831171 1014.75631224 158.69433594 1010.97558594 C157.87472195 1005.66718461 157.05631702 1000.3585998 156.23925781 995.04980469 C154.43665218 983.33818158 152.62940335 971.6272797 150.81695557 959.91717529 C150.27081457 956.38463254 149.72686749 952.85175725 149.18310547 949.31884766 C147.40700473 937.81463669 145.56894845 926.32346553 143.640625 914.84375 C140.77287114 897.768788 138.05187909 880.67114104 135.34326172 863.5703125 C134.78250717 860.03037176 134.22031788 856.49066394 133.65673828 852.95117188 C130.54111804 833.38318571 127.4700362 813.81198007 124.65563965 794.19805908 C123.45103616 785.85496214 122.10178481 777.54916032 120.625 769.25 C118.49294947 757.12800626 116.58581187 744.98243515 114.75 732.8125 C114.60614868 731.85969147 114.46229736 730.90688293 114.31408691 729.92520142 C114.01637136 727.95315447 113.7186831 725.9811034 113.42102051 724.00904846 C113.26919312 723.00317184 113.11736572 721.99729523 112.9609375 720.9609375 C112.80620972 719.93544296 112.65148193 718.90994843 112.49206543 717.8533783 C110.48155697 704.54370264 108.43374507 691.23979132 106.375 677.9375 C106.18041199 676.67986847 105.98582397 675.42223694 105.78533936 674.12649536 C103.58125946 659.9037489 101.3194335 645.70092992 98.80322266 631.52978516 C96.4374855 618.05850456 94.46086769 604.52605902 92.42047119 591.00259399 C92.26882507 589.99755829 92.11717896 588.99252258 91.9609375 587.95703125 C91.72887604 586.41866104 91.72887604 586.41866104 91.49212646 584.84921265 C89.6731636 572.80824119 87.81760357 560.77295415 85.95373535 548.73886108 C85.57630589 546.30051628 85.19956409 543.8620649 84.8236084 541.42349243 C82.84478083 528.58988436 80.8075844 515.76941025 78.6484375 502.96484375 C76.59487587 490.76263102 74.65852061 478.54449118 72.765625 466.31640625 C72.62499004 465.40792309 72.48435509 464.49943993 72.33945847 463.56342697 C71.61010949 458.84916124 70.88199066 454.13470634 70.15441895 449.42016602 C65.96254969 422.26178503 61.75319929 395.10875465 57.25 368 C53.9299972 348.00456793 50.83011206 327.98031115 47.8125 307.9375 C47.70556446 307.2273386 47.59862892 306.5171772 47.48845291 305.78549576 C46.95997287 302.27542363 46.43171606 298.76531792 45.90351868 295.25520325 C45.80168085 294.57846872 45.69984303 293.9017342 45.5949192 293.20449257 C45.39166983 291.85376769 45.1884518 290.5030381 44.98526573 289.1523037 C43.25586035 277.65821428 41.49625993 266.16936351 39.6875 254.6875 C39.58225006 254.01443817 39.47700012 253.34137634 39.36856079 252.6479187 C38.27137615 245.64028202 37.11767331 238.64525231 35.89477539 231.65844727 C32.93197829 214.72761015 30.2286761 197.77370971 27.69174194 180.77502441 C26.71984638 174.26301423 25.73720767 167.75261973 24.75538826 161.24209976 C24.43238128 159.09989656 24.10967506 156.95764818 23.78697205 154.81539917 C22.12468669 143.78765835 20.42922484 132.76548394 18.6875 121.75 C18.58261261 121.08356476 18.47772522 120.41712952 18.36965942 119.73049927 C17.06921127 111.47767025 15.70695036 103.23607711 14.32519531 94.99650574 C11.42862532 77.71398894 8.64759902 60.41467979 5.9230957 43.10424805 C5.30018626 39.14788916 4.67237065 35.19232351 4.04360485 31.23689175 C3.55290989 28.14465874 3.06563156 25.05189448 2.57930946 21.95897102 C2.34893396 20.49757992 2.11729817 19.03638687 1.88432884 17.57540703 C1.56273475 15.55660066 1.2459863 13.53709008 0.93041992 11.51733398 C0.75008713 10.37538071 0.56975433 9.23342743 0.38395691 8.05686951 C0 5 0 5 0 0 Z " transform="translate(1452,34)" style="fill: #FF6D00;"/><path d="M0 0 C0.99562432 0.00015598 1.99124865 0.00031196 3.01704341 0.00047267 C4.16315763 -0.00177462 5.30927185 -0.00402192 6.4901168 -0.00633731 C7.76775745 -0.0037103 9.0453981 -0.00108328 10.36175513 0.00162334 C11.72385244 0.00088458 13.08594958 -0.00029306 14.44804617 -0.00187316 C18.22530666 -0.00496257 22.00254053 -0.00175029 25.77979905 0.00240497 C29.87614258 0.00582191 33.97248326 0.00347169 38.06882733 0.00182748 C45.25949789 -0.00025233 52.45016019 0.00140783 59.6408298 0.00546569 C70.33321324 0.01148296 81.02559145 0.01180315 91.71797628 0.0109237 C109.70135978 0.00960753 127.68473962 0.01295981 145.66812205 0.01894111 C163.48280297 0.02485116 181.29748236 0.02870564 199.11216426 0.02979392 C200.21840025 0.02986266 201.32463624 0.0299314 202.46439453 0.03000222 C208.08204141 0.03034054 213.69968829 0.03064193 219.31733518 0.0309291 C259.1428471 0.03303144 298.96835703 0.03977417 338.79386782 0.04923171 C377.4921099 0.05841097 416.19035144 0.06549712 454.88859439 0.06973952 C456.67678202 0.06993681 456.67678202 0.06993681 458.50109466 0.07013809 C470.47252818 0.07145657 482.4439617 0.07273239 494.41539522 0.07397695 C518.80420232 0.0765134 543.19300938 0.07933465 567.58181643 0.08232803 C569.26398074 0.08253396 569.26398074 0.08253396 570.98012816 0.08274406 C645.91210146 0.09195008 720.84407364 0.1077959 795.77604556 0.12467116 C795.62062099 1.56789966 795.46380201 3.01097803 795.30639237 4.45399136 C795.21921299 5.25762142 795.13203362 6.06125148 795.04221245 6.88923397 C794.74924208 9.34978368 794.31675437 11.73859507 793.77398562 14.15610427 C793.5767087 15.04582931 793.37943179 15.93555434 793.17617678 16.85224074 C792.85448268 18.26858306 792.85448268 18.26858306 792.5262897 19.71353835 C792.29836733 20.73496932 792.07044497 21.75640029 791.83561587 22.80878371 C791.08201893 26.18073949 790.32161921 29.55112254 789.56120181 32.92154616 C789.02564964 35.31185073 788.49053762 37.70225394 787.95583987 40.09274978 C786.54186138 46.40899162 785.12218281 52.72393867 783.70121646 59.03861159 C782.29525256 65.29054528 780.89411456 71.54355953 779.49284243 77.79654616 C777.84517711 85.14821398 776.19702192 92.49976925 774.5457294 99.85062331 C771.93766624 111.46295992 769.33788009 123.07700624 766.76383853 134.69693679 C766.52851507 135.75881335 766.29319161 136.82068992 766.05073714 137.91474456 C764.94977611 142.88433685 763.85079125 147.8543544 762.75482058 152.82504958 C762.37058072 154.56197713 761.98630083 156.29889583 761.60197329 158.03580398 C761.42991051 158.81951621 761.25784773 159.60322845 761.08057093 160.41068954 C760.42420924 163.3717988 759.73598598 166.24484989 758.77604556 169.12467116 C657.13604556 169.12467116 555.49604556 169.12467116 450.77604556 169.12467116 C450.44604556 171.76467116 450.11604556 174.40467116 449.77604556 177.12467116 C449.23768071 179.81144665 448.67362612 182.47500119 448.06120181 185.14420241 C447.89028521 185.90279052 447.71936862 186.66137862 447.54327273 187.44295425 C446.97896033 189.94193487 446.40889862 192.43956288 445.83854556 194.93717116 C445.43389476 196.72163304 445.02943922 198.50613919 444.62516665 200.29068679 C441.35389591 214.70202541 438.00901196 229.09627608 434.64933657 243.48721999 C431.48967918 257.02505414 428.37430738 270.5726636 425.27604556 284.12467116 C421.6052392 300.17814243 417.90111232 316.22337214 414.16129946 332.26090163 C410.83215817 346.54109612 407.54477976 360.83053537 404.27604556 375.12467116 C400.60500466 391.17808932 396.90111257 407.22337107 393.16129946 423.26090163 C389.83215817 437.54109612 386.54477976 451.83053537 383.27604556 466.12467116 C379.60500466 482.17808932 375.90111257 498.22337107 372.16129946 514.26090163 C368.83215817 528.54109612 365.54477976 542.83053537 362.27604556 557.12467116 C358.60500466 573.17808932 354.90111257 589.22337107 351.16129946 605.26090163 C347.83215817 619.54109612 344.54477976 633.83053537 341.27604556 648.12467116 C337.60500466 664.17808932 333.90111257 680.22337107 330.16129946 696.26090163 C326.83215817 710.54109612 323.54477976 724.83053537 320.27604556 739.12467116 C316.60500466 755.17808932 312.90111257 771.22337107 309.16129946 787.26090163 C305.83215789 801.54109733 302.54502657 815.83059111 299.27604556 830.12467116 C295.73870744 845.58889097 292.18316123 861.04865666 288.58854556 876.49967116 C288.38184237 877.38819778 288.17513919 878.27672439 287.96217227 879.19217605 C285.35702252 890.38508854 282.72999202 901.57269198 280.08854556 912.75708694 C277.25170224 924.77159627 274.47423138 936.7976905 271.76701235 948.84220046 C265.00711458 978.91461828 258.20602022 1008.98070867 251.16270327 1038.98816604 C250.78347603 1040.60571715 250.40588075 1042.22365183 250.03001284 1043.84198684 C249.51938385 1046.03769151 249.00229107 1048.23176446 248.48307681 1050.42545241 C248.19924136 1051.63370681 247.91540591 1052.8419612 247.62296939 1054.08682937 C246.77604556 1057.12467116 246.77604556 1057.12467116 244.77604556 1061.12467116 C184.38604556 1061.12467116 123.99604556 1061.12467116 61.77604556 1061.12467116 C62.41508334 1055.37333114 63.04354347 1050.41440171 64.37760806 1044.89810866 C64.53439532 1044.24198089 64.69118258 1043.58585311 64.85272097 1042.90984267 C65.18891309 1041.50489834 65.52745373 1040.10051419 65.86817813 1038.69666213 C66.79580713 1034.87208509 67.70425982 1031.04293083 68.61588931 1027.21451491 C68.80164019 1026.43659087 68.98739108 1025.65866683 69.17877078 1024.85716933 C70.82854092 1017.93768016 72.40843089 1011.00354073 73.96354556 1004.06217116 C74.53227352 1001.53085722 75.10121239 998.99959192 75.67057681 996.46842116 C75.82573763 995.77849578 75.98089846 995.0885704 76.14076113 994.37773818 C78.79157134 982.60151746 81.47059817 970.83167488 84.15104556 959.06217116 C84.57767489 957.18880584 84.57767489 957.18880584 85.012923 955.27759475 C88.55748714 939.72444116 92.15496334 924.1862237 95.86537051 908.67185134 C99.53546269 893.3100421 103.01487329 877.90642017 106.48869204 862.4992134 C109.88799653 847.42478903 113.32385135 832.36012185 116.83854556 817.31217116 C120.35446734 802.25795203 123.83049037 787.19515668 127.27604556 772.12467116 C130.94688954 756.07120844 134.65097875 740.02597035 138.39079165 723.9884407 C141.71993294 709.70824621 145.00731135 695.41880696 148.27604556 681.12467116 C151.94708645 665.07125301 155.65097854 649.02597126 159.39079165 632.9884407 C162.71993294 618.70824621 166.00731135 604.41880696 169.27604556 590.12467116 C172.94708645 574.07125301 176.65097854 558.02597126 180.39079165 541.9884407 C183.71993294 527.70824621 187.00731135 513.41880696 190.27604556 499.12467116 C193.94708645 483.07125301 197.65097854 467.02597126 201.39079165 450.9884407 C204.71993294 436.70824621 208.00731135 422.41880696 211.27604556 408.12467116 C214.94708645 392.07125301 218.65097854 376.02597126 222.39079165 359.9884407 C225.71993294 345.70824621 229.00731135 331.41880696 232.27604556 317.12467116 C235.94632218 301.07459516 239.6478064 285.03225622 243.38877749 268.9985115 C245.80352259 258.6472353 248.20062362 248.29224264 250.56510806 237.92935866 C250.80187258 236.89244887 251.03863711 235.85553908 251.28257632 234.78720779 C252.41490268 229.82680186 253.54492069 224.8658918 254.67057681 219.90396804 C258.53997425 202.93219556 262.67336842 186.04821437 266.77604556 169.12467116 C166.12604556 169.12467116 65.47604556 169.12467116 -38.22395444 169.12467116 C-37.09908681 157.87599483 -37.09908681 157.87599483 -36.11995054 153.48013991 C-35.90211408 152.4882466 -35.68427762 151.49635329 -35.45984006 150.47440261 C-35.22473218 149.43086623 -34.9896243 148.38732986 -34.74739194 147.31217116 C-34.50136732 146.19741408 -34.25534269 145.082657 -34.00186277 143.93411941 C-33.47702123 141.55805554 -32.9497023 139.18253774 -32.42009092 136.80753249 C-31.03446667 130.59289932 -29.66681706 124.37431209 -28.29817319 118.15592116 C-28.0284419 116.93231887 -27.75871061 115.70871658 -27.48080564 114.44803542 C-25.37155059 104.85707266 -23.35667422 95.25006229 -21.41145444 85.62467116 C-19.07626625 74.09525522 -16.56351947 62.61502461 -13.93122983 51.14957351 C-12.23099346 43.70451932 -10.60219627 36.24850563 -9.04036069 28.77310866 C-8.85733899 27.89739211 -8.6743173 27.02167556 -8.48574949 26.11942214 C-7.58412218 21.79664384 -6.6889581 17.47260879 -5.80037046 13.1471321 C-5.47546264 11.5797403 -5.15051357 10.01235705 -4.82551694 8.44498366 C-4.67792432 7.71741866 -4.5303317 6.98985366 -4.37826658 6.24024123 C-3.11569218 0.17466049 -3.11569218 0.17466049 0 0 Z " transform="translate(2913.2239544428885,33.875328835099936)" style="fill: #FF6D00;"/><path d="M0 0 C31.94051052 -0.98785084 66.7102978 10.34669101 90.28125 32.28125 C92.30005012 34.22142316 94.29024269 36.1872732 96.28125 38.15625 C97.01730469 38.82011719 97.75335938 39.48398438 98.51171875 40.16796875 C107.48665095 48.4263395 118.86022683 63.28028302 119.45117188 75.73852539 C119.40051223 80.49773215 118.42285207 84.8912536 117.3046875 89.5 C116.99309189 90.82928528 116.99309189 90.82928528 116.67520142 92.1854248 C116.01049618 95.01106403 115.33343877 97.83357983 114.65625 100.65625 C114.22448272 102.48809812 113.79348763 104.32012843 113.36328125 106.15234375 C111.10103957 115.74547463 108.74857679 125.31378346 106.33984375 134.87109375 C103.35476052 146.73039156 100.57203176 158.6328848 97.81781006 170.54760742 C96.30789305 177.07614514 94.7903983 183.60291203 93.26953125 190.12890625 C93.03019615 191.15594099 93.03019615 191.15594099 92.786026 192.20372391 C89.17543881 207.68602287 85.46664666 223.14449115 81.75082397 238.60180664 C61.65546223 322.20241829 43.01249137 406.14495498 24.40276718 490.08694267 C13.49992919 539.26405883 2.25104624 588.34890425 -9.30639648 637.37597656 C-12.90121873 652.6337332 -16.44923783 667.90182729 -19.95336914 683.18066406 C-20.12694443 683.93646255 -20.30051971 684.69226105 -20.47935486 685.47096252 C-20.93895471 687.47290531 -21.39750277 689.47508948 -21.85595703 691.47729492 C-22.7714682 695.38104077 -23.74281932 699.267213 -24.71875 703.15625 C-23.44514712 703.16048194 -22.17154425 703.16471388 -20.85934734 703.16907406 C53.12214867 703.41509997 127.10359942 703.67199498 201.08499146 703.94761658 C201.88673588 703.95060312 202.6884803 703.95358967 203.51452 703.95666672 C210.72453222 703.98352746 217.93454439 704.01039859 225.14455628 704.0373441 C241.41909879 704.09815344 257.69364256 704.15834676 273.96820068 704.21484375 C274.96592996 704.21830836 274.96592996 704.21830836 275.98381538 704.22184295 C279.27927315 704.23328041 282.57473098 704.24469783 285.87018883 704.25611126 C308.33768357 704.33395205 330.80513913 704.41780306 353.27256107 704.51455784 C364.83872913 704.56420264 376.40488785 704.60827772 387.97110516 704.64474308 C395.74991534 704.66982786 403.52867357 704.70208253 411.30742973 704.74041259 C415.71849131 704.76195723 420.12950444 704.78034822 424.54060936 704.79003906 C428.51294013 704.79882841 432.48511982 704.81658487 436.45737875 704.84189904 C437.88892914 704.84939617 439.32050202 704.85348579 440.75207198 704.8539294 C442.67987476 704.85500111 444.60765694 704.86934408 446.53540039 704.88450623 C448.14023033 704.89085413 448.14023033 704.89085413 449.77748108 704.89733028 C452.28125 705.15625 452.28125 705.15625 454.28125 707.15625 C454.40906957 712.98438725 452.78659812 718.95454925 451.44970703 724.59741211 C451.26512247 725.39519703 451.08053791 726.19298195 450.89035988 727.01494217 C450.27810513 729.65564512 449.65856453 732.29458246 449.0390625 734.93359375 C448.59842783 736.82828545 448.15827456 738.72308917 447.71856689 740.61799622 C446.53341272 745.71942763 445.34196154 750.81936715 444.14879608 755.91893005 C442.14630108 764.4807705 440.15148111 773.04440611 438.15524673 781.60770798 C437.64384517 783.80080709 437.132173 785.99384311 436.62023544 788.18681717 C433.16383495 802.9935117 429.75549545 817.81016159 426.40062332 832.6401844 C425.10764589 838.34937938 423.80664603 844.05675274 422.50584984 849.76417065 C421.47861481 854.27529248 420.45734809 858.78761062 419.4487915 863.302948 C418.50755942 867.51673267 417.55212886 871.72703741 416.58562469 875.93509483 C416.23584824 877.47042629 415.89155561 879.00701894 415.55316925 880.54490089 C415.09325694 882.63214765 414.61433346 884.71411835 414.13037109 886.79589844 C413.86807709 887.95941833 413.60578308 889.12293823 413.33554077 890.32171631 C412.0673859 893.73123843 411.47516217 894.45121261 408.28125 896.15625 C405.14638393 896.60321751 402.03411035 896.55829821 398.87217426 896.53377342 C397.90352553 896.53813374 396.9348768 896.54249407 395.93687508 896.54698652 C392.66556625 896.55800303 389.39467361 896.54749076 386.12336731 896.53720093 C383.76439325 896.54065501 381.4054208 896.54541789 379.04645175 896.55138266 C373.9041833 896.56132691 368.76200065 896.56187837 363.6197319 896.55424118 C355.97243784 896.54291446 348.32522373 896.54868443 340.67793023 896.5578661 C327.0178457 896.57368554 313.35780319 896.57228462 299.69771464 896.56362936 C287.73554658 896.55608719 275.77339393 896.55411043 263.81122398 896.5576973 C262.62169252 896.55804103 262.62169252 896.55804103 261.40813013 896.55839171 C258.18897868 896.55932572 254.96982725 896.56028092 251.75067582 896.561271 C221.52847923 896.57045524 191.3063094 896.56211824 161.08411694 896.54598031 C134.25048091 896.53176061 107.4168876 896.53300152 80.58325195 896.54736328 C50.43649108 896.56344432 20.28975391 896.56978605 -9.85701066 896.56052649 C-13.07438011 896.55956437 -16.29174957 896.55862584 -19.50911903 896.5576973 C-20.30131522 896.55746006 -21.0935114 896.55722283 -21.90971353 896.55697841 C-33.85352899 896.55357129 -45.79732728 896.55754732 -57.74114037 896.56513596 C-71.33702497 896.57373118 -84.93286095 896.57153304 -98.52873953 896.55529372 C-105.46338736 896.54728309 -112.39795639 896.54390364 -119.33260345 896.55424118 C-125.68836291 896.56321844 -132.04395618 896.55820517 -138.39970068 896.54230852 C-140.69192597 896.53897334 -142.98416546 896.54062613 -145.27638151 896.54793589 C-161.68253267 896.59621612 -177.0192687 895.31637312 -192.78125 890.46875 C-193.61140625 890.21456299 -194.4415625 889.96037598 -195.296875 889.69848633 C-217.27004805 882.67203427 -237.68444035 868.85902101 -248.70117188 848.20507812 C-249.72968193 846.19919939 -250.72885976 844.18141957 -251.71875 842.15625 C-252.27175781 841.05925781 -252.82476562 839.96226562 -253.39453125 838.83203125 C-256.74833021 831.64779523 -258.93595184 824.303916 -260.96875 816.65625 C-261.21520264 815.73126709 -261.46165527 814.80628418 -261.71557617 813.85327148 C-269.07689997 784.76675494 -267.22564716 754.36109269 -260.26678467 725.44470215 C-259.6740176 722.96945896 -259.09400121 720.49145347 -258.51611328 718.01269531 C-256.0220946 707.32675649 -253.46391379 696.65725958 -250.86793518 685.9956665 C-248.37192142 675.74373577 -245.91436241 665.48280733 -243.46875 655.21875 C-243.2604657 654.34585327 -243.0521814 653.47295654 -242.83758545 652.5736084 C-239.88907896 640.21020378 -237.04456998 627.82770701 -234.27392578 615.42333984 C-232.05624261 605.54073148 -229.72347058 595.68845451 -227.34375 585.84375 C-227.16817566 585.11413055 -226.99260132 584.38451111 -226.81170654 583.63278198 C-226.31738138 581.58131796 -225.81953754 579.53074519 -225.3203125 577.48046875 C-225.03494629 576.30572998 -224.74958008 575.13099121 -224.45556641 573.9206543 C-223.71875 571.15625 -223.71875 571.15625 -222.71875 569.15625 C-223.37721924 569.04812988 -224.03568848 568.94000977 -224.71411133 568.82861328 C-241.97158389 565.86099017 -258.49812067 560.87128776 -273.71875 552.15625 C-275.14960938 551.39634766 -275.14960938 551.39634766 -276.609375 550.62109375 C-289.04584823 543.51194019 -300.03201046 531.75177047 -306.71875 519.15625 C-307.23566406 518.2384375 -307.75257813 517.320625 -308.28515625 516.375 C-317.01075571 500.10470928 -320.09370216 482.73564193 -320.08935547 464.39477539 C-320.09366492 462.38346021 -320.13049112 460.37229873 -320.16796875 458.36132812 C-320.35356492 437.46036791 -314.96454189 416.87829183 -310.21875 396.65625 C-309.74024451 394.58868989 -309.26237898 392.52098157 -308.78515625 390.453125 C-306.20859048 379.32523259 -303.54042013 368.22463514 -300.71875 357.15625 C-295.57787105 356.98276571 -290.97973484 357.57136037 -286.01000977 358.78588867 C-285.26885264 358.9603162 -284.52769552 359.13474373 -283.76407909 359.31445694 C-281.31096287 359.89369224 -278.86063897 360.48395049 -276.41015625 361.07421875 C-274.66547275 361.48834875 -272.92061598 361.90174944 -271.17559814 362.31446838 C-267.46638812 363.19321327 -263.75834848 364.07667993 -260.05117798 364.96398926 C-254.27320397 366.34683134 -248.492725 367.71897059 -242.71166992 369.08886719 C-236.90909913 370.46427954 -231.10662763 371.8400934 -225.30500793 373.21951294 C-209.92127011 376.87692777 -194.52877927 380.49506112 -179.12594604 384.07119751 C-175.58221388 384.89441103 -172.03925874 385.72091025 -168.49633789 386.54760742 C-166.38953787 387.03717129 -164.28268904 387.52652516 -162.17578125 388.015625 C-161.23099915 388.23650284 -160.28621704 388.45738068 -159.31280518 388.68495178 C-158.46297058 388.88140793 -157.61313599 389.07786407 -156.73754883 389.28027344 C-156.00353348 389.45089294 -155.26951813 389.62151245 -154.51325989 389.79730225 C-152.69690091 390.22163006 -152.69690091 390.22163006 -150.71875 390.15625 C-147.60948579 380.69035001 -145.51037146 370.97874043 -143.2890625 361.27734375 C-142.85393887 359.38788219 -142.41853793 357.49848447 -141.98287964 355.60914612 C-140.83086239 350.60941122 -139.68289337 345.60875504 -138.53570557 340.60791016 C-137.64022711 336.7072038 -136.74198846 332.80713607 -135.84353924 328.90711308 C-130.97734247 307.78337766 -126.14499028 286.65199575 -121.33020973 265.51648712 C-114.00484495 233.36070904 -106.61260473 201.22050393 -99.20866728 169.08274621 C-97.99939528 163.83363764 -96.79048075 158.58444685 -95.58178711 153.33520508 C-95.32536802 152.22163535 -95.32536802 152.22163535 -95.06376874 151.08556926 C-94.20416303 147.35244967 -93.34464439 143.61931006 -92.48525429 139.88614082 C-90.80478912 132.58687349 -89.12262855 125.28800396 -87.43685913 117.98995972 C-86.78439389 115.16440744 -86.13211578 112.33881203 -85.47998047 109.51318359 C-85.32085198 108.82377678 -85.16172349 108.13436996 -84.99777293 107.42407203 C-83.00043003 98.76687128 -81.02418791 90.10525781 -79.07343578 81.43743801 C-77.98623666 76.60864779 -76.89169807 71.78153463 -75.79663277 66.95452309 C-75.29755835 64.74417995 -74.8023048 62.53296984 -74.31129265 60.32082176 C-69.80575964 40.02484504 -65.61538083 25.07851881 -47.1953125 13.2265625 C-32.90686328 4.48360227 -16.54019688 0.95058603 0 0 Z " transform="translate(340.71875,201.84375)" style="fill: #FE6D00;"/><path d="M0 0 C1.05785962 0.00436926 1.05785962 0.00436926 2.13709015 0.00882679 C2.8811511 0.00797237 3.62521206 0.00711794 4.39182031 0.00623763 C6.9038936 0.0045806 9.41590123 0.0101078 11.92796844 0.01555592 C13.72119658 0.01583777 15.51442482 0.0156801 17.30765289 0.01511341 C22.19174545 0.01482535 27.07581368 0.02072345 31.95990056 0.02768737 C37.0581776 0.0339195 42.15645514 0.0345246 47.25473541 0.03571278 C56.91618339 0.03882651 66.57762013 0.04704047 76.23906314 0.05706227 C87.23524803 0.0682221 98.23143344 0.07373353 109.22762257 0.0787577 C131.85422523 0.08922305 154.48081789 0.1068233 177.1074118 0.12908131 C176.62037968 4.96325399 176.10985797 9.71396645 174.99095672 14.45037037 C174.76904159 15.4017841 174.54712646 16.35319782 174.31848663 17.33344227 C173.95683662 18.84876797 173.95683662 18.84876797 173.58788055 20.39470631 C173.33328567 21.48126011 173.07869079 22.56781391 172.81638092 23.68729359 C172.26703448 26.02985198 171.71539023 28.37187249 171.16167206 30.71340138 C169.67598761 36.99661942 168.20697408 43.28373814 166.73631805 49.57048756 C166.58540962 50.21463927 166.43450119 50.85879097 166.27901977 51.52246243 C163.01952404 65.43645144 159.86857616 79.37433609 156.7324118 93.31658131 C153.44588594 107.91357883 150.10597359 122.48862422 146.54076141 137.02019459 C144.33680817 146.0513863 142.2978116 155.11418745 140.2949118 164.19158131 C140.13033478 164.9374651 139.96575775 165.68334889 139.79619354 166.45183522 C139.63028717 167.20384205 139.4643808 167.95584889 139.29344696 168.73064381 C136.6464511 180.72680618 133.95534224 192.71242141 131.2324118 204.69158131 C130.91663177 206.08095906 130.91663177 206.08095906 130.59447235 207.49840504 C127.33813327 221.81445914 124.02758861 236.11745906 120.6881308 250.41432911 C116.57865799 268.01176428 112.57206225 285.63213554 108.56786102 303.25377613 C105.30672348 317.59678586 102.00131848 331.92234558 98.49290985 346.20696217 C96.08832638 356.0555459 93.90646633 365.94920057 91.73055023 375.85018116 C89.13757002 387.63832739 86.41430169 399.39012806 83.6074118 411.12908131 C80.69547675 423.31648217 77.86821658 435.51755915 75.1699118 447.75408131 C74.51637144 450.71634418 73.86281493 453.67860345 73.2089743 456.64080006 C73.0428212 457.39355717 72.87666809 458.14631428 72.70548004 458.92188221 C70.51918687 468.81107788 68.28622261 478.6897291 66.0449118 488.56658131 C65.83103821 489.5092284 65.61716461 490.4518755 65.39681 491.42308766 C62.58036791 503.82066352 59.67043894 516.18940927 56.64793915 528.53850514 C54.36647808 537.91762233 52.24984296 547.32872093 50.1699118 556.75408131 C50.00229339 557.51365132 49.83467499 558.27322132 49.66197723 559.0558086 C49.49411712 559.81660725 49.32625702 560.57740589 49.15331024 561.36125904 C46.88378798 571.64676221 44.58183252 581.92401983 42.2324118 592.19158131 C42.07039276 592.89991108 41.90837372 593.60824085 41.741445 594.33803517 C38.70833626 607.58733133 35.61833111 620.82330567 32.52983612 634.05977589 C29.49581571 647.06976059 26.52399117 660.09229191 23.6074118 673.12908131 C20.63009623 686.43622459 17.58754225 699.72619149 14.4824118 713.00408131 C10.28017512 730.97448426 6.17868568 748.96703851 2.09800857 766.96533161 C-2.33781119 786.52926728 -6.77830513 806.09171125 -11.3300882 825.62908131 C-11.53003388 826.48736531 -11.72997956 827.3456493 -11.93598419 828.2299419 C-13.94194976 836.83392768 -15.96211915 845.43448353 -17.99805695 854.03142506 C-21.69742361 869.65805059 -25.29290414 885.30153286 -28.75684601 900.98210865 C-34.76199853 928.15744887 -40.97242126 955.28653298 -47.30582672 982.38713795 C-50.03360425 994.06092053 -52.7219751 1005.74322297 -55.3769632 1017.43376881 C-55.67685406 1018.75343773 -55.97675536 1020.07310428 -56.27666718 1021.39276844 C-57.75172632 1027.88501055 -59.22328703 1034.37802179 -60.6906839 1040.87200123 C-61.22795226 1043.24026599 -61.76530177 1045.60851235 -62.30274445 1047.97673756 C-62.55018402 1049.07666035 -62.7976236 1050.17658314 -63.05256134 1051.30983692 C-63.2808664 1052.3137447 -63.50917145 1053.31765248 -63.74439484 1054.3519817 C-63.94295578 1055.23044255 -64.14151673 1056.10890339 -64.34609467 1057.01398426 C-64.8925882 1059.12908131 -64.8925882 1059.12908131 -65.8925882 1061.12908131 C-125.9525882 1061.12908131 -186.0125882 1061.12908131 -247.8925882 1061.12908131 C-249.29781564 1058.31862643 -248.50920504 1056.88494318 -247.74024445 1053.85564381 C-247.32379669 1052.18223927 -247.32379669 1052.18223927 -246.89893585 1050.47502857 C-246.58746613 1049.24711598 -246.2759964 1048.01920338 -245.9550882 1046.75408131 C-245.29212446 1044.09003982 -244.63632145 1041.42426955 -243.98243195 1038.75798756 C-243.72435761 1037.70746456 -243.72435761 1037.70746456 -243.46106964 1036.63571888 C-241.5194288 1028.68243761 -239.76912697 1020.68843313 -238.0175882 1012.69158131 C-235.26225295 1000.14086803 -232.38079757 987.62634753 -229.3925882 975.12908131 C-226.48065314 962.94168044 -223.65339298 950.74060347 -220.9550882 938.50408131 C-220.30154784 935.54181843 -219.64799133 932.57955917 -218.9941507 929.61736256 C-218.82799759 928.86460545 -218.66184448 928.11184834 -218.49065644 927.33628041 C-216.30436327 917.44708473 -214.07139901 907.56843352 -211.8300882 897.69158131 C-211.6162146 896.74893421 -211.40234101 895.80628712 -211.18198639 894.83507496 C-208.36503651 882.43526385 -205.45595823 870.06391455 -202.43091828 857.71306568 C-199.98020213 847.6437099 -197.74067971 837.53270771 -195.5165506 827.41155201 C-192.92328696 815.62221767 -190.19976207 803.86922223 -187.3925882 792.12908131 C-184.48065314 779.94168044 -181.65339298 767.74060347 -178.9550882 755.50408131 C-178.30154784 752.54181843 -177.64799133 749.57955917 -176.9941507 746.61736256 C-176.82799759 745.86460545 -176.66184448 745.11184834 -176.49065644 744.33628041 C-174.30436327 734.44708473 -172.07139901 724.56843352 -169.8300882 714.69158131 C-169.6162146 713.74893421 -169.40234101 712.80628712 -169.18198639 711.83507496 C-166.36503651 699.43526385 -163.45595823 687.06391455 -160.43091828 674.71306568 C-157.98020213 664.6437099 -155.74067971 654.53270771 -153.5165506 644.41155201 C-150.92328696 632.62221767 -148.19976207 620.86922223 -145.3925882 609.12908131 C-142.48065384 596.94168334 -139.65326555 584.74062975 -136.9550882 572.50408131 C-136.79441864 571.7756905 -136.63374909 571.04729969 -136.46821076 570.29683644 C-136.22557495 569.19684819 -136.22557495 569.19684819 -135.97803742 568.07463795 C-133.36475176 556.22940205 -130.70605575 544.39498524 -128.0175882 532.56658131 C-127.8068869 531.63951374 -127.59618561 530.71244618 -127.37909943 529.75728565 C-124.12187307 515.4373629 -120.80923325 501.13079556 -117.47028595 486.82973439 C-113.43671671 469.54834501 -109.49072316 452.24743295 -105.55417877 434.94371754 C-101.75964774 418.26762456 -97.92250748 401.60236481 -94.03083283 384.9486919 C-90.85021367 371.33111599 -87.75656935 357.69563996 -84.70447785 344.04872853 C-82.01644624 332.03579846 -79.24680479 320.04518902 -76.40329987 308.06816822 C-73.41669333 295.47969337 -70.57344211 282.86139286 -67.75345856 270.23467213 C-65.37415457 259.5911704 -62.92550031 248.97229609 -60.3300882 238.37908131 C-57.78230449 227.96856211 -55.38865336 217.53208618 -53.0800882 207.06658131 C-52.83363053 205.94952305 -52.83363053 205.94952305 -52.58219391 204.80989796 C-52.33328903 203.68169132 -52.33328903 203.68169132 -52.07935578 202.53069264 C-49.43205642 190.53348542 -46.74075931 178.54680004 -44.0175882 166.56658131 C-43.80706818 165.64032948 -43.59654816 164.71407765 -43.37964875 163.75975758 C-40.12224209 149.43901003 -36.8094252 135.1316177 -33.47028595 120.82973439 C-30.00883563 105.99952637 -26.60869339 91.15582641 -23.22953278 76.3066631 C-14.93390347 39.85519905 -14.93390347 39.85519905 -10.79908234 21.97161061 C-10.36404398 20.08795437 -9.93027171 18.20400525 -9.49781281 16.31975514 C-8.90894449 13.75537325 -8.31551958 11.19209132 -7.7207132 8.62908131 C-7.54844208 7.87477833 -7.37617096 7.12047535 -7.19867951 6.34331471 C-5.72060055 0.01790967 -5.72060055 0.01790967 0 0 Z " transform="translate(1146.892588198185,33.870918691158295)" style="fill: #FF6D00;"/><path d="M0 0 C60.39 0 120.78 0 183 0 C181.79317589 7.24094467 180.57768312 14.33144009 178.93359375 21.4609375 C178.73902588 22.31691025 178.54445801 23.172883 178.34399414 24.05479431 C177.71215217 26.82904571 177.07503242 29.60205124 176.4375 32.375 C175.98888899 34.33745523 175.54040467 36.29993942 175.09204102 38.26245117 C171.90616099 52.17875192 168.63738747 66.07472154 165.33032227 79.96264648 C158.01631355 110.68833274 151.03044955 141.49080993 144.14112854 172.31417847 C139.17220839 194.54337301 134.15852567 216.75959321 128.97460938 238.93969727 C125.33629955 254.51257377 121.75816648 270.09898896 118.1875 285.6875 C113.86678248 304.5505199 109.51759035 323.40656658 105.12701416 342.253479 C100.54039137 361.94279032 96.03349244 381.64741764 91.62802124 401.37805176 C88.33258016 416.13336961 84.961955 430.86887685 81.51919556 445.59048462 C77.78836664 461.54728902 74.13520315 477.52115757 70.5 493.5 C66.63887703 510.46648862 62.76122756 527.42866588 58.8125 544.375 C58.51259659 545.66210876 58.51259659 545.66210876 58.20663452 546.97521973 C57.01015576 552.10833729 55.81196689 557.24105463 54.61328125 562.37365723 C52.67711706 570.66517246 50.7436303 578.95731095 48.8125 587.25 C48.6011441 588.15747986 48.38978821 589.06495972 48.17202759 589.99993896 C45.29222695 602.37094676 42.46085538 614.75143313 39.68286133 627.14575195 C37.39573315 637.32104349 35.02988498 647.47704303 32.65576172 657.63232422 C29.51446329 671.06997088 26.4116575 684.51053778 23.5 698 C20.47073493 712.02334634 17.23820214 725.99487325 13.97265625 739.96484375 C10.77777773 753.63480293 7.62778255 767.31453987 4.5 781 C0.99308211 796.34157174 -2.54716873 811.67481641 -6.125 827 C-9.50609287 841.48397797 -12.81125341 855.98315868 -16.05883789 870.49761963 C-18.85136109 882.97180253 -21.71416154 895.42792476 -24.625 907.875 C-28.82750437 925.84654768 -32.92935841 943.84022822 -37.01021194 961.83968735 C-41.52597691 981.75741317 -46.05182042 1001.6722426 -50.6875 1021.5625 C-50.8839209 1022.40530518 -51.0803418 1023.24811035 -51.28271484 1024.11645508 C-52.17914411 1027.96009617 -53.07824858 1031.80307801 -53.98193359 1035.64501953 C-54.69585174 1038.68479287 -55.39417305 1041.72772812 -56.08447266 1044.77294922 C-56.26242874 1045.54992661 -56.44038483 1046.32690399 -56.62373352 1047.12742615 C-56.96051773 1048.59854688 -57.2934551 1050.07055588 -57.62174988 1051.54359436 C-58.42824604 1055.0451593 -59.37351431 1057.74702862 -61 1061 C-120.73 1061 -180.46 1061 -242 1061 C-242 1056.09083626 -241.95016751 1052.91176474 -240.8894043 1048.36743164 C-240.64420547 1047.29982101 -240.39900665 1046.23221039 -240.14637756 1045.13224792 C-239.87506516 1043.98645767 -239.60375275 1042.84066742 -239.32421875 1041.66015625 C-239.04327866 1040.44616653 -238.76233856 1039.23217682 -238.47288513 1037.98139954 C-237.86711863 1035.36838601 -237.2586663 1032.75618599 -236.64532471 1030.1449585 C-235.67714324 1026.02300468 -234.719331 1021.89868525 -233.76318359 1017.77392578 C-232.62626656 1012.87232006 -231.48697459 1007.97127975 -230.34426117 1003.07102203 C-227.80173975 992.1672649 -225.29750108 981.25486977 -222.80288696 970.34005737 C-221.9028346 966.40325518 -221.0007111 962.46692875 -220.09861755 958.53059387 C-217.88758456 948.88204146 -215.68060985 939.23256356 -213.47583008 929.58258057 C-212.17029383 923.86859872 -210.8641997 918.15474438 -209.5579834 912.44091797 C-209.16903031 910.73942905 -208.7801174 909.03793094 -208.39123535 907.33642578 C-203.23080169 884.75842164 -198.05902641 862.18317779 -192.8125 839.625 C-192.50221863 838.29080521 -192.50221863 838.29080521 -192.18566895 836.92965698 C-190.09831446 827.95868082 -188.00210849 818.9899083 -185.87890625 810.02734375 C-182.18614236 794.43459206 -178.59957339 778.82446657 -175.14233398 763.17773438 C-172.44300204 750.9645502 -169.70511857 738.76039712 -166.9375 726.5625 C-166.72371704 725.62021545 -166.50993408 724.67793091 -166.28967285 723.70709229 C-163.4726279 711.3069163 -160.56345965 698.93519913 -157.53833008 686.58398438 C-155.08761393 676.51462859 -152.84809151 666.4036264 -150.6239624 656.2824707 C-148.03069877 644.49313637 -145.30717387 632.74014092 -142.5 621 C-139.58806495 608.81259913 -136.76080478 596.61152216 -134.0625 584.375 C-133.40895964 581.41273713 -132.75540313 578.45047786 -132.1015625 575.48828125 C-131.93540939 574.73552414 -131.76925629 573.98276703 -131.59806824 573.2071991 C-129.41177507 563.31800342 -127.17881081 553.43935221 -124.9375 543.5625 C-124.7236264 542.61985291 -124.50975281 541.67720581 -124.28939819 540.70599365 C-121.47244831 528.30618254 -118.56337003 515.93483324 -115.53833008 503.58398438 C-113.08761393 493.51462859 -110.84809151 483.4036264 -108.6239624 473.2824707 C-106.03069877 461.49313637 -103.30717387 449.74014092 -100.5 438 C-97.58806564 425.81260203 -94.76067735 413.61154844 -92.0625 401.375 C-91.90183044 400.64660919 -91.74116089 399.91821838 -91.57562256 399.16775513 C-91.41386536 398.43442963 -91.25210815 397.70110413 -91.08544922 396.94555664 C-88.47216356 385.10032074 -85.81346756 373.26590393 -83.125 361.4375 C-82.91429871 360.51043243 -82.70359741 359.58336487 -82.48651123 358.62820435 C-79.22928488 344.30828159 -75.91664505 330.00171425 -72.57769775 315.70065308 C-68.83048675 299.64613447 -65.15771057 283.57512335 -61.5 267.5 C-57.63871127 250.53354842 -53.7612278 233.57133515 -49.8125 216.625 C-49.51259659 215.33789124 -49.51259659 215.33789124 -49.20663452 214.02478027 C-48.01015576 208.89166271 -46.81196689 203.75894537 -45.61328125 198.62634277 C-38.99913833 170.30164435 -32.4542785 141.96482493 -26.12008667 113.57601929 C-21.31662659 92.05386574 -16.50291325 70.53772144 -11.34423828 49.09741211 C-7.42557985 32.76056606 -3.7446008 16.38262848 0 0 Z " transform="translate(2597,34)" style="fill: #FF6D00;"/><path d="M0 0 C1.07137207 0.34289062 2.14274414 0.68578125 3.24658203 1.0390625 C17.92421315 5.79544478 32.1455053 11.20201773 46 18 C47.33683838 18.65403809 47.33683838 18.65403809 48.70068359 19.32128906 C59.57961154 24.69864779 69.62154557 30.24016207 79 38 C79.60714844 38.43441406 80.21429688 38.86882812 80.83984375 39.31640625 C85.50183444 42.72096433 88.9584312 47.64269181 91 53 C91.94994632 61.89075971 89.27071987 70.42395582 87.1875 79 C86.76003633 80.79011861 86.33364948 82.58049462 85.90820312 84.37109375 C85.17539065 87.45446052 84.44158344 90.53756819 83.70431519 93.61987305 C81.36777085 103.40052506 79.0885113 113.19403618 76.81633949 122.98980713 C75.52987721 128.53322812 74.23954301 134.07574933 72.94940853 139.61831665 C71.86464136 144.27948353 70.78165257 148.94104906 69.70248413 153.60351562 C68.66983722 158.06367641 67.63110531 162.52237938 66.5879879 166.98010254 C66.1983181 168.65008236 65.81082081 170.32057071 65.42557716 171.99157715 C64.89355946 174.29783568 64.35397829 176.60219728 63.8125 178.90625 C63.58032666 179.92498199 63.58032666 179.92498199 63.34346294 180.96429443 C62.58508178 184.15575938 61.84732792 186.22900812 60 189 C57.04758066 188.68064338 56.12994201 188.15331488 54.17578125 185.84765625 C53.56089844 184.92855469 52.94601562 184.00945312 52.3125 183.0625 C30.66600931 152.11603553 -4.22224631 136.39949659 -40.484375 129.7265625 C-73.0616437 124.27208761 -110.01871351 127.57036315 -137.7265625 146.90234375 C-148.0758505 154.79719336 -155.44148769 164.29786882 -161 176 C-167.52788938 175.39407566 -173.71787604 174.27927984 -180.08691406 172.74682617 C-181.05245712 172.51901962 -182.01800018 172.29121307 -183.01280212 172.0565033 C-186.18170123 171.3073251 -189.34868497 170.55038203 -192.515625 169.79296875 C-194.7359814 169.26554825 -196.95642147 168.73847985 -199.17694092 168.21174622 C-203.82435276 167.10806044 -208.47084588 166.00060818 -213.11669922 164.89038086 C-219.04033313 163.4750442 -224.96597003 162.06831622 -230.89230728 160.66434765 C-235.47786769 159.57712965 -240.06241106 158.48567252 -244.64665985 157.39293861 C-246.82941913 156.87309126 -249.01246357 156.35443959 -251.19580841 155.83705711 C-257.80843384 154.26844878 -264.41267219 152.67193095 -271 151 C-271.73576767 150.81365116 -272.47153534 150.62730232 -273.229599 150.43530655 C-275.11831618 149.94579635 -276.99864326 149.42421073 -278.87792969 148.8996582 C-279.86492859 148.62539505 -280.85192749 148.3511319 -281.86883545 148.06855774 C-284 147 -284 147 -284.89512634 145.26670837 C-285.03375079 142.27052043 -284.48359331 139.7564564 -283.80004883 136.83300781 C-283.51257278 135.58360413 -283.22509674 134.33420044 -282.9289093 133.04693604 C-282.60517372 131.68227925 -282.28120823 130.31767699 -281.95703125 128.953125 C-281.62812185 127.5400324 -281.29998425 126.12675995 -280.97257996 124.71331787 C-280.10600239 120.98241244 -279.22826294 117.25421675 -278.34838867 113.52642822 C-277.64286596 110.52940309 -276.94497679 107.53062782 -276.24760914 104.53169632 C-274.18951688 95.68196018 -272.12164318 86.8347447 -270 78 C-269.83341763 77.30175613 -269.66683525 76.60351227 -269.49520493 75.8841095 C-268.98365884 73.74786652 -268.46483258 71.61351049 -267.9440918 69.47949219 C-267.63892136 68.22046082 -267.33375092 66.96142944 -267.01933289 65.66424561 C-262.76934599 50.38661059 -254.31648402 37.84347263 -244 26 C-243.47148437 25.38640625 -242.94296875 24.7728125 -242.3984375 24.140625 C-220.0718642 0.09662298 -184.79964502 -12.27327761 -153 -16 C-152.19498047 -16.09571289 -151.38996094 -16.19142578 -150.56054688 -16.29003906 C-100.67347404 -21.31476589 -47.68843982 -15.35266638 0 0 Z " transform="translate(409,49)" style="fill: #FE6D00;"/><path d="M0 0 C7.22670687 1.2530854 14.37156332 2.70716355 21.5078125 4.3984375 C22.49208221 4.62955734 23.47635193 4.86067719 24.490448 5.09880066 C27.70272591 5.85434766 30.91391857 6.6143852 34.125 7.375 C35.22972656 7.63578339 36.33445313 7.89656677 37.47265625 8.16525269 C54.66627306 12.22446254 71.84003368 16.36341162 89 20.5625 C90.03562073 20.81561951 91.07124146 21.06873901 92.13824463 21.32952881 C97.68233861 22.68603065 103.22307222 24.05482324 108.75927734 25.44317627 C110.75970642 25.9402866 112.76436768 26.42029432 114.76953125 26.89794922 C115.77371094 27.14689941 116.77789062 27.39584961 117.8125 27.65234375 C118.62332031 27.84691162 119.43414062 28.04147949 120.26953125 28.24194336 C120.84058594 28.49210205 121.41164062 28.74226074 122 29 C123.13909273 32.4172782 122.82919396 33.64908491 122.02783203 37.09814453 C121.79073517 38.13576935 121.55363831 39.17339417 121.30935669 40.24246216 C120.91259232 41.92068558 120.91259232 41.92068558 120.5078125 43.6328125 C120.10971878 45.35417923 120.10971878 45.35417923 119.70358276 47.11032104 C119.14064832 49.53715682 118.57382002 51.96309214 118.00341797 54.38818359 C117.12739138 58.11482701 116.26387417 61.84420039 115.40234375 65.57421875 C114.85490041 67.92725416 114.3067475 70.28012463 113.7578125 72.6328125 C113.49735138 73.75567657 113.23689026 74.87854065 112.96853638 76.03543091 C112.72513519 77.0667514 112.48173401 78.0980719 112.23095703 79.16064453 C112.01698273 80.07314972 111.80300842 80.98565491 111.58255005 81.92581177 C111 84 111 84 110 85 C104.53779967 85.31675156 99.82151488 84.47453743 94.5715332 83.18334961 C93.757173 82.98976868 92.94281281 82.79618774 92.10377502 82.59674072 C89.41756921 81.95617156 86.73422665 81.30437148 84.05078125 80.65234375 C82.15503804 80.19763604 80.25913544 79.74359245 78.36308289 79.29017639 C73.35965481 78.09160661 68.35861734 76.88333357 63.35797119 75.67321777 C59.35828579 74.70698317 55.35699811 73.74749478 51.35559273 72.78841209 C29.87505102 67.63972959 8.41265372 62.42486369 -13 57 C-12.49598722 49.69653659 -11.47309325 42.74460175 -9.78515625 35.625 C-9.5693541 34.69324951 -9.35355194 33.76149902 -9.13121033 32.80151367 C-8.67838651 30.8546298 -8.22193648 28.90858597 -7.76196289 26.96337891 C-7.05820413 23.98179991 -6.36919561 20.99707125 -5.68164062 18.01171875 C-5.2378467 16.11177632 -4.7932155 14.21202922 -4.34765625 12.3125 C-4.14237808 11.42191895 -3.93709991 10.53133789 -3.7256012 9.61376953 C-3.52877243 8.7886084 -3.33194366 7.96344727 -3.12915039 7.11328125 C-2.95895889 6.38923096 -2.7887674 5.66518066 -2.61341858 4.91918945 C-2 3 -2 3 0 0 Z " transform="translate(118,224)" style="fill: #FE6D00;"/><path d="M0 0 C7.92140597 -0.54213989 15.15871804 1.47657621 22.80078125 3.3671875 C24.26537931 3.72224661 25.73018753 4.07643981 27.19519043 4.42982483 C31.09878958 5.3736057 34.99971893 6.32799951 38.90021133 7.28452682 C42.92439644 8.26955544 46.95082919 9.24529012 50.97729492 10.22094727 C51.77536969 10.41432961 52.57344446 10.60771196 53.39570332 10.80695438 C55.00376232 11.19656366 56.61183298 11.5861248 58.21991539 11.97563744 C60.62271547 12.55804002 63.02521944 13.14165207 65.4276886 13.72541809 C74.66851259 15.96840685 83.91774477 18.16430299 93.1875 20.28515625 C94.21191696 20.51988647 95.23633392 20.7546167 96.29179382 20.99645996 C100.90433981 22.0510492 105.51891342 23.09579547 110.13598633 24.13037109 C111.72221581 24.49165201 113.30840076 24.85312847 114.89453125 25.21484375 C115.59936646 25.36929459 116.30420166 25.52374542 117.03039551 25.68287659 C121.77330039 26.77330039 121.77330039 26.77330039 124 29 C123.61065283 35.56104229 122.27662078 41.82711227 120.78515625 48.21484375 C120.5693541 49.15179581 120.35355194 50.08874786 120.13121033 51.05409241 C119.6774073 53.01689213 119.22095583 54.97908126 118.76196289 56.94067383 C118.05929447 59.95123399 117.37006504 62.96467039 116.68164062 65.97851562 C116.23778551 67.89081234 115.79315195 69.80292857 115.34765625 71.71484375 C115.14237808 72.6168602 114.93709991 73.51887665 114.7256012 74.44822693 C114.52877243 75.27991898 114.33194366 76.11161102 114.12915039 76.96850586 C113.95895889 77.70080917 113.7887674 78.43311249 113.61341858 79.18760681 C113 81 113 81 111 83 C101.13817328 82.56129678 90.9346936 79.19624245 81.34765625 76.89453125 C79.64074186 76.48783327 77.93374433 76.08148404 76.22666931 75.67546082 C71.74405771 74.60824934 67.26263136 73.53614096 62.78143311 72.4630127 C58.32183148 71.39603997 53.86104875 70.33402977 49.40039062 69.27148438 C41.67083259 67.42953301 33.94286718 65.58101622 26.21593666 63.72807503 C21.53510431 62.60596061 16.85322579 61.48839688 12.17009449 60.37591648 C10.07138378 59.87699712 7.97304675 59.37654102 5.87486267 58.87541199 C3.35350467 58.27334861 0.83153222 57.67385062 -1.69114685 57.0773468 C-2.78379349 56.81552109 -3.87644012 56.55369537 -5.00219727 56.28393555 C-5.95054947 56.05836472 -6.89890167 55.83279388 -7.87599182 55.60038757 C-10 55 -10 55 -11 54 C-11.46374001 47.7325963 -10.06531364 42.10178389 -8.59375 36.03515625 C-8.34959351 35.00184677 -8.10543701 33.96853729 -7.85388184 32.90391541 C-7.07656314 29.62165647 -6.2884511 26.34210057 -5.5 23.0625 C-4.96933632 20.83024816 -4.43938057 18.5978279 -3.91015625 16.36523438 C-2.61496279 10.90817917 -1.31091097 5.45329956 0 0 Z " transform="translate(97,310)" style="fill: #FE6D00;"/><path d="M0 0 C7.07346607 0.52756855 13.77614562 1.70430352 20.6628418 3.37670898 C21.67718292 3.61748169 22.69152405 3.85825439 23.73660278 4.10632324 C27.05900708 4.89663996 30.37910238 5.69622502 33.69921875 6.49609375 C36.02215714 7.05090634 38.34522345 7.60518356 40.66841125 8.15895081 C45.5234654 9.31760006 50.37748722 10.48044438 55.23071289 11.64672852 C61.4432504 13.13965283 67.65743826 14.62555636 73.87230206 16.10876369 C79.81514753 17.5272848 85.75724091 18.9489433 91.69921875 20.37109375 C93.39249078 20.77605985 93.39249078 20.77605985 95.11997032 21.18920708 C98.32217265 21.95573247 101.52384207 22.72444253 104.7253418 23.49389648 C105.66629196 23.71890335 106.60724213 23.94391022 107.57670593 24.17573547 C121.5391122 27.5391122 121.5391122 27.5391122 123 29 C122.50200689 35.57875108 121.26423903 41.83883252 119.75 48.25 C119.42273926 49.6589856 119.42273926 49.6589856 119.08886719 51.09643555 C118.63075325 53.063409 118.17010765 55.0297944 117.70703125 56.99560547 C116.99584195 60.01766885 116.29424603 63.04184834 115.59375 66.06640625 C115.14639561 67.98190224 114.69849866 69.89727161 114.25 71.8125 C114.03956055 72.71967773 113.82912109 73.62685547 113.61230469 74.56152344 C113.41540039 75.39329102 113.21849609 76.22505859 113.015625 77.08203125 C112.75700684 78.18381714 112.75700684 78.18381714 112.49316406 79.30786133 C112 81 112 81 111 82 C104.6804889 82.47476032 98.99586103 81.03837354 92.87988281 79.55322266 C91.78152603 79.29308884 90.68316925 79.03295502 89.55152893 78.76493835 C85.93347763 77.90581045 82.31828785 77.03525819 78.703125 76.1640625 C76.18695188 75.56299084 73.67065362 74.9624428 71.15423584 74.36239624 C65.88757336 73.10469824 60.62223612 71.8416568 55.35791016 70.57421875 C49.27330228 69.10936945 43.18637035 67.65451724 37.09809422 66.20499575 C31.23358281 64.80852222 25.37074745 63.40515869 19.50862885 61.99866867 C17.01628687 61.40131546 14.5235346 60.80567151 12.03037262 60.21175003 C8.55297031 59.38228738 5.07753921 58.54502742 1.60253906 57.70556641 C0.56768875 57.46028702 -0.46716156 57.21500763 -1.53337097 56.96229553 C-2.95058189 56.6173983 -2.95058189 56.6173983 -4.39642334 56.26553345 C-5.21786709 56.06826975 -6.03931084 55.87100605 -6.88564682 55.66776466 C-9 55 -9 55 -12 53 C-11.64318649 43.31466523 -9.39642044 34.06493699 -7.18920898 24.67236328 C-6.5579178 21.98046095 -5.94134513 19.28546997 -5.32617188 16.58984375 C-4.92794771 14.8721952 -4.52888953 13.15473976 -4.12890625 11.4375 C-3.94550186 10.63441406 -3.76209747 9.83132813 -3.57313538 9.00390625 C-2.74749056 5.52459623 -2.0031495 3.00472425 0 0 Z " transform="translate(79,393)" style="fill: #FE6D00;"/><path d="M0 0 C1.36598791 0.31481984 2.72872789 0.64392435 4.08868408 0.9838562 C4.83462074 1.15944439 5.5805574 1.33503258 6.34909821 1.51594162 C8.83461665 2.10390572 11.31543541 2.70972292 13.79669189 3.31539917 C15.55068424 3.73374464 17.30498333 4.15080592 19.05957031 4.56665039 C22.75290065 5.44344615 26.44459286 6.32673876 30.13531494 7.21444702 C35.55385419 8.51482263 40.97944614 9.78323905 46.40802002 11.04098511 C54.30382965 12.87076557 62.19621224 14.71440364 70.08545685 16.57229233 C74.55096756 17.62356685 79.01743556 18.67037548 83.48614502 19.70797729 C87.92943796 20.73981349 92.37015929 21.78208409 96.80922699 22.83194351 C98.4749311 23.22400077 100.14151587 23.61233697 101.80899811 23.99676132 C104.10329543 24.52636998 106.39403277 25.06932265 108.68438721 25.61569214 C109.36038971 25.76843094 110.03639221 25.92116974 110.73287964 26.07853699 C116.7962507 27.55300036 116.7962507 27.55300036 118.74981689 30.55758667 C118.47589258 33.29122768 118.05086733 35.6569119 117.39825439 38.30368042 C117.22355621 39.07003311 117.04885803 39.8363858 116.86886597 40.6259613 C116.30376647 43.08643302 115.71459034 45.54042552 115.12481689 47.99508667 C114.74954686 49.61386365 114.37583167 51.23300191 114.00372314 52.85250854 C112.0176335 61.44521872 109.91938593 70.0093809 107.74981689 78.55758667 C99.52638249 79.64072147 92.67854916 79.38967277 84.64459229 77.40792847 C83.60723938 77.16744781 82.56988647 76.92696716 81.50109863 76.67919922 C78.11223555 75.88898477 74.73008036 75.07334554 71.34747314 74.25680542 C68.97798092 73.69819489 66.60813695 73.14107448 64.23796082 72.58537292 C59.29061838 71.42167706 54.34621163 70.24648811 49.40386963 69.06173706 C43.07008614 67.54345798 36.73198446 66.04430285 30.39193058 64.55244732 C24.33404589 63.12646593 18.27807376 61.6924511 12.22247314 60.25680542 C11.06918077 59.98379797 9.9158884 59.71079052 8.72764778 59.42951012 C5.46713472 58.65583267 2.20799941 57.87662092 -1.05072021 57.09542847 C-2.01442032 56.86727951 -2.97812042 56.63913055 -3.97102356 56.40406799 C-13.23048367 54.17154456 -13.23048367 54.17154456 -16.25018311 52.55758667 C-17.35192977 49.25234668 -17.14615572 48.15920582 -16.40155029 44.84249878 C-16.19092957 43.88818466 -15.98030884 42.93387054 -15.76330566 41.95063782 C-15.52694397 40.92245438 -15.29058228 39.89427094 -15.04705811 38.83493042 C-14.68937347 37.25029747 -14.68937347 37.25029747 -14.32446289 35.63365173 C-13.81731217 33.39927294 -13.30594632 31.16584736 -12.79071045 28.93331909 C-12.00327084 25.50851611 -11.23735518 22.07936681 -10.47283936 18.64938354 C-9.97804914 16.48176787 -9.4819977 14.31443963 -8.98455811 12.14743042 C-8.75629333 11.11722275 -8.52802856 10.08701508 -8.29284668 9.02558899 C-8.06961731 8.07442703 -7.84638794 7.12326508 -7.61639404 6.14328003 C-7.42462585 5.30405502 -7.23285767 4.46483002 -7.03527832 3.60017395 C-5.59687875 -0.14211949 -3.76285016 -0.51219732 0 0 Z " transform="translate(64.25018310546875,477.4424133300781)" style="fill: #FE6D00;"/><path d="M0 0 C0.33 0.66 0.66 1.32 1 2 C0.25556641 2.63615234 0.25556641 2.63615234 -0.50390625 3.28515625 C-5.20321342 7.34243284 -9.67153988 11.54980194 -14 16 C-14.66 15.34 -15.32 14.68 -16 14 C-10.96965614 8.76433598 -6.07070905 4.00408469 0 0 Z " transform="translate(179,63)" style="fill: #FB9501;"/></svg>