<svg version="1.1" id="Layer_1" xmlns="http://www.w3.org/2000/svg" xmlns:xlink="http://www.w3.org/1999/xlink" x="0px" y="0px"
	 width="100%" viewBox="0 0 6000 2000" enable-background="new 0 0 6000 2000" xml:space="preserve">
<path fill="#000000" opacity="1.000000" stroke="none" 
	d="
M4526.000000,2002.000000 
	C3017.333252,2002.000000 1509.666626,2002.000000 2.000000,2002.000000 
	C2.000000,1335.333374 2.000000,668.666687 2.000000,2.000000 
	C2002.000000,2.000000 4002.000000,2.000000 6002.000000,2.000000 
	C6002.000000,668.666687 6002.000000,1335.333374 6002.000000,2002.000000 
	C5510.333496,2002.000000 5018.666504,2002.000000 4526.000000,2002.000000 
M436.398254,1771.935059 
	C436.398254,1771.935059 435.889191,1771.670532 437.743561,1772.061035 
	C439.070709,1772.125610 440.397827,1772.246338 441.724976,1772.246704 
	C562.804504,1772.276611 683.884033,1772.294922 804.963562,1772.329102 
	C809.284058,1772.330322 813.604492,1772.484985 819.337402,1773.320557 
	C824.913513,1773.476562 830.489563,1773.632568 837.929504,1773.890869 
	C925.400757,1773.926025 1012.872009,1773.980713 1100.343262,1773.918335 
	C1103.547607,1773.916016 1106.751221,1772.765869 1111.798828,1771.756836 
	C1125.172363,1771.660034 1138.546021,1771.563354 1152.999756,1771.786011 
	C1153.358765,1771.676270 1153.717896,1771.566406 1155.934570,1771.629639 
	C1172.589355,1771.565552 1189.244263,1771.501465 1206.987915,1771.747192 
	C1207.348755,1771.636353 1207.709595,1771.525513 1209.706421,1771.600220 
	C1212.447388,1771.548096 1215.188354,1771.495972 1219.715210,1771.871948 
	C1225.824951,1771.733765 1231.934692,1771.595581 1239.901245,1771.633545 
	C1250.567139,1771.567749 1261.233032,1771.501831 1272.987793,1771.746826 
	C1273.348755,1771.636108 1273.709595,1771.525269 1275.904663,1771.599731 
	C1283.913818,1771.538696 1291.922974,1771.477783 1301.205322,1771.837891 
	C1302.731323,1771.239014 1304.257324,1770.640137 1306.944336,1769.070435 
	C1307.834473,1766.234009 1308.915771,1763.442017 1309.585205,1760.554443 
	C1316.099854,1732.447388 1322.516968,1704.317627 1329.017212,1676.207275 
	C1343.138062,1615.141235 1357.305542,1554.086060 1371.390381,1493.011597 
	C1372.101318,1489.928467 1373.682861,1486.468506 1368.895874,1482.648926 
	C1361.939453,1482.439209 1354.982300,1482.032959 1348.026611,1482.055542 
	C1323.403931,1482.135498 1298.781616,1482.362061 1272.458374,1482.352783 
	C1269.611816,1482.419434 1266.765259,1482.485962 1262.682129,1482.161987 
	C1261.842041,1482.307617 1261.001831,1482.453125 1258.358276,1482.401123 
	C1253.522949,1482.471558 1248.687744,1482.541992 1242.448242,1482.187500 
	C1240.998901,1482.323242 1239.549561,1482.458984 1236.387085,1482.375610 
	C1232.937012,1482.439941 1229.487061,1482.504395 1225.028931,1482.190796 
	C1224.673584,1482.239990 1224.318115,1482.289307 1223.996582,1482.120361 
	C1223.996582,1482.120361 1224.013916,1481.900146 1222.585571,1481.076660 
	C1220.312378,1480.755493 1218.040283,1480.163086 1215.765869,1480.154297 
	C1184.048706,1480.030640 1152.331055,1479.947998 1120.613770,1479.988647 
	C1117.727539,1479.992310 1114.842529,1480.912231 1110.099731,1481.627808 
	C1094.753662,1481.585083 1079.407593,1481.542480 1063.354858,1480.909546 
	C1062.239014,1481.097168 1061.123169,1481.284790 1058.161133,1481.656494 
	C1050.101807,1481.591797 1042.042480,1481.526978 1033.305908,1480.856079 
	C1032.203613,1481.032104 1031.101318,1481.208130 1028.511475,1481.566040 
	C1027.016724,1481.506714 1025.521851,1481.447388 1023.603333,1480.902710 
	C1022.912537,1480.639526 1022.357788,1480.809326 1020.082214,1481.614502 
	C993.545654,1481.547974 967.009155,1481.481445 939.095337,1480.378296 
	C926.825745,1480.361328 914.556091,1480.344360 900.393677,1480.051025 
	C882.178894,1480.138672 863.964172,1480.226196 843.922241,1480.055786 
	C829.593994,1480.037109 815.265320,1479.941772 800.937622,1480.019775 
	C784.627136,1480.108521 768.317444,1480.351929 750.521179,1480.355103 
	C749.028503,1480.414551 747.535889,1480.473999 744.693359,1480.135742 
	C743.776428,1480.282715 742.859436,1480.429810 740.086121,1480.397095 
	C728.751709,1480.462158 717.417236,1480.527222 704.430847,1480.154907 
	C701.600159,1480.291870 698.769531,1480.428833 694.084839,1480.364990 
	C682.754517,1480.424561 671.424255,1480.484009 659.025024,1480.193848 
	C658.660278,1480.280396 658.295532,1480.367065 657.023743,1480.152954 
	C657.023743,1480.152954 656.154785,1479.755493 654.889038,1478.942871 
	C651.180908,1477.100952 645.411743,1479.528198 643.730225,1471.953491 
	C646.628662,1458.978638 649.377991,1445.968384 652.453125,1433.035522 
	C662.056519,1392.646973 672.099243,1352.360352 681.379578,1311.898315 
	C692.294250,1264.311157 702.514465,1216.565063 713.168640,1168.917725 
	C733.110657,1079.733643 752.920837,990.519104 773.229370,901.418335 
	C785.937805,845.662109 799.475037,790.094910 812.605164,734.434570 
	C821.608398,696.268982 830.493652,658.075378 839.539124,619.919739 
	C846.668030,589.849182 854.027771,559.833191 861.089294,529.747070 
	C861.897095,526.305359 862.414307,522.253723 861.372009,519.033142 
	C859.254822,512.490784 856.435852,506.070496 853.101624,500.045074 
	C838.374573,473.430847 816.983337,453.290039 790.981628,437.980469 
	C763.089722,421.557953 733.299194,410.854706 699.222046,408.516144 
	C690.016602,408.921722 680.811218,409.327301 669.883179,409.686096 
	C647.465210,410.828888 626.833618,417.738831 607.828430,429.445190 
	C589.773193,440.566406 578.195435,455.866516 573.563782,477.342743 
	C561.937500,531.251770 549.093323,584.898376 536.705017,638.642700 
	C522.033569,702.292053 507.269775,765.920166 492.656464,829.582886 
	C482.029663,875.878418 471.603668,922.220093 461.036560,968.529419 
	C458.894531,977.916626 456.664124,987.288940 454.197113,996.594543 
	C452.904358,1001.470886 448.207428,1004.267517 444.220459,1003.178040 
	C436.572174,1001.088135 428.963684,998.823242 421.250458,997.005249 
	C376.622253,986.486877 331.966309,976.086182 287.324097,965.627075 
	C269.953857,961.557434 252.607803,957.383545 235.220688,953.387939 
	C231.494019,952.531555 227.637253,952.241394 223.594604,951.654663 
	C222.758240,954.209167 222.138718,955.720398 221.768219,957.290405 
	C216.657059,978.947693 211.134293,1000.520630 206.616913,1022.301758 
	C201.834335,1045.361450 198.016159,1068.621338 192.918915,1093.250244 
	C192.614258,1103.353516 192.153259,1113.455933 192.106216,1123.560425 
	C192.093155,1126.362793 193.308929,1129.170898 194.332794,1133.606934 
	C197.395508,1167.389282 209.328522,1197.553467 232.320969,1222.664307 
	C246.322586,1237.956055 263.112061,1249.987183 282.798676,1256.965576 
	C302.028198,1263.781982 321.642059,1269.514160 341.166931,1275.747681 
	C332.822540,1311.556152 324.557495,1347.400391 316.105072,1383.200317 
	C305.746216,1427.075073 295.022125,1470.864746 284.907227,1514.795166 
	C281.791443,1528.327393 280.153748,1542.200195 276.770416,1557.124023 
	C276.431519,1562.098999 276.092651,1567.073975 274.939758,1573.451294 
	C275.165344,1582.333740 275.390961,1591.216309 275.927673,1601.689697 
	C276.499603,1605.304077 277.071564,1608.918335 277.620575,1613.708618 
	C277.722626,1614.485596 277.824646,1615.262573 277.470490,1616.700073 
	C277.677063,1617.686646 277.883636,1618.673218 278.232147,1621.342041 
	C281.579620,1636.193848 283.907593,1651.370728 288.515350,1665.820679 
	C295.294373,1687.079712 304.574982,1707.381592 320.483093,1723.724976 
	C348.688843,1752.702393 384.079071,1765.999878 424.699188,1771.328613 
	C427.791016,1771.653809 430.882812,1771.979126 434.438843,1772.695190 
	C434.438843,1772.695190 435.330017,1772.810669 435.330017,1772.810669 
	C435.330017,1772.810669 436.145416,1772.449951 436.398254,1771.935059 
M601.985901,148.073669 
	C595.806335,148.536942 589.626831,149.000214 581.972534,149.565872 
	C580.005615,149.527527 578.038757,149.489166 574.910217,148.765549 
	C571.933716,149.140427 568.957275,149.515305 564.253174,150.247177 
	C558.640991,150.728500 553.010254,151.053238 547.419617,151.716507 
	C510.792511,156.061920 477.005463,168.483871 445.996735,188.280884 
	C412.500000,209.666321 388.815735,238.885117 378.223816,277.556671 
	C372.700562,297.722351 368.706421,318.305603 363.953918,338.684479 
	C362.770782,343.757751 361.217773,348.744598 360.027527,353.816437 
	C358.514801,360.262360 357.134277,366.741302 355.813782,373.229828 
	C354.202057,381.149780 352.711823,389.094452 350.994904,397.923950 
	C414.099915,413.103119 475.970551,427.985352 538.115051,442.933472 
	C553.036560,409.039001 579.257324,389.674896 612.312805,378.246643 
	C630.999207,371.786255 650.289795,368.694550 671.713623,367.877686 
	C677.164246,367.724365 682.614868,367.571045 689.884521,367.627869 
	C704.043701,369.284729 718.386780,370.033875 732.310425,372.853607 
	C746.250977,375.676758 760.122192,379.666412 773.380859,384.803894 
	C786.964844,390.067383 800.377197,396.360535 812.742065,404.016205 
	C824.804565,411.484619 836.235107,420.422241 846.491028,430.232788 
	C856.570496,439.874451 864.824707,451.424164 875.165527,463.657440 
	C876.670715,459.316284 877.680115,457.033966 878.257080,454.647125 
	C887.368713,416.955688 896.538269,379.277618 905.453186,341.539459 
	C911.255859,316.976044 916.409912,292.257233 922.405823,267.742859 
	C924.354858,259.774078 922.440186,253.311874 917.851624,247.309311 
	C914.646240,243.116165 911.052490,239.144821 907.201111,235.534256 
	C894.445496,223.576340 879.272949,215.191315 863.829834,207.390884 
	C818.731262,184.611206 771.184692,168.916855 721.508789,159.962250 
	C701.944458,156.435577 682.105591,154.431824 661.151855,150.716156 
	C657.418762,150.634583 653.685669,150.553024 648.943909,150.163666 
	C648.617981,150.031738 648.292114,149.899811 647.117676,149.050674 
	C645.388550,149.173584 643.659424,149.296494 640.120178,149.640808 
	C633.438110,149.671982 626.755981,149.703171 619.116028,148.395065 
	C613.984192,148.371796 608.852356,148.348511 601.985901,148.073669 
M4395.619141,154.268890 
	C4392.966309,153.624527 4390.313965,152.419952 4387.660645,152.416931 
	C4301.332520,152.318588 4215.004395,152.331696 4128.676270,152.355942 
	C4126.051270,152.356674 4123.426758,152.652954 4120.253418,152.844559 
	C3996.849609,690.403625 3873.503662,1227.710815 3749.990723,1765.744873 
	C3842.297119,1765.744873 3933.816895,1765.744873 4025.894775,1765.744873 
	C4027.906250,1757.373535 4029.993896,1749.027588 4031.913818,1740.643188 
	C4050.165039,1660.947754 4068.338135,1581.234253 4086.633057,1501.548828 
	C4102.993652,1430.288208 4119.516602,1359.064819 4135.899414,1287.809204 
	C4153.101074,1212.990601 4170.214355,1138.151733 4187.377441,1063.324341 
	C4202.980469,995.299316 4218.594238,927.276733 4234.210938,859.254883 
	C4250.569824,787.998352 4266.938965,716.744202 4283.302246,645.488708 
	C4299.516602,574.879333 4315.739258,504.271729 4331.938965,433.658752 
	C4348.357422,362.093994 4364.788574,290.532135 4381.135254,218.950958 
	C4385.719727,198.877655 4390.024902,178.740799 4395.337891,157.996155 
	C4395.396973,157.307388 4395.455566,156.618637 4395.619141,154.268890 
M2375.678223,152.781799 
	C2375.678223,152.781799 2375.368408,153.514069 2375.368408,153.514069 
	C2375.368408,153.514069 2375.947998,154.057312 2375.730225,155.771774 
	C2381.546143,193.162842 2387.331787,230.558624 2393.186035,267.943665 
	C2399.504150,308.288696 2405.914795,348.619232 2412.232422,388.964325 
	C2417.728516,424.062836 2423.082764,459.183685 2428.625000,494.274902 
	C2435.097900,535.262207 2441.765625,576.218872 2448.239502,617.205994 
	C2454.454346,656.553650 2460.472168,695.932373 2466.682129,735.280823 
	C2473.047363,775.614929 2479.585449,815.921875 2485.964844,856.253845 
	C2492.343750,896.584229 2498.595947,936.934631 2504.947754,977.269409 
	C2511.248291,1017.278870 2517.633545,1057.275024 2523.926025,1097.285767 
	C2530.218506,1137.298096 2536.387207,1177.329956 2542.710693,1217.337402 
	C2551.002197,1269.797363 2559.453613,1322.231812 2567.723389,1374.695190 
	C2577.338623,1435.695190 2586.786621,1496.721436 2596.390625,1557.723267 
	C2606.303467,1620.685669 2616.306396,1683.634033 2626.302246,1746.583252 
	C2627.324951,1753.023560 2628.572754,1759.428101 2629.801514,1766.328857 
	C2633.691162,1766.328857 2636.655518,1766.328857 2639.619629,1766.328857 
	C2728.944092,1766.328857 2818.268311,1766.328979 2907.592773,1766.328735 
	C2908.926025,1766.328735 2910.274170,1766.195435 2911.589600,1766.348389 
	C2915.812988,1766.839722 2918.085693,1764.778320 2920.247559,1761.239502 
	C2944.021973,1722.326904 2967.987549,1683.531006 2991.885498,1644.693848 
	C3051.196533,1548.306274 3110.490479,1451.908447 3169.807129,1355.524658 
	C3227.200439,1262.266724 3284.620850,1169.025635 3342.016113,1075.769043 
	C3398.026611,984.761963 3454.017578,893.742737 3510.023682,802.732910 
	C3575.445312,696.422791 3640.859131,590.108032 3706.304443,483.812469 
	C3760.577637,395.661743 3814.925049,307.556549 3869.163086,219.384125 
	C3882.406006,197.855331 3895.347900,176.141327 3909.236572,153.969635 
	C3908.761963,153.524948 3908.287354,153.080261 3905.976807,152.389053 
	C3801.706543,152.389053 3697.436279,152.389053 3593.747803,152.389053 
	C3592.945801,153.289856 3592.677490,153.510727 3592.509766,153.791779 
	C3345.433350,567.860413 3098.363281,981.932861 2851.294678,1396.006226 
	C2850.782715,1396.864258 2850.312744,1397.748047 2849.787598,1398.598022 
	C2849.438721,1399.162598 2849.061279,1399.718018 2848.631104,1400.221680 
	C2848.208984,1400.716064 2847.728760,1401.170288 2847.224365,1401.581665 
	C2846.977539,1401.783447 2846.627441,1401.916626 2846.308350,1401.956177 
	C2845.992432,1401.995483 2845.656738,1401.878174 2843.838623,1401.607788 
	C2787.201904,985.771667 2730.508057,569.515808 2673.688232,152.335434 
	C2669.284668,152.335434 2665.692139,152.335419 2662.099854,152.335419 
	C2570.126221,152.335434 2478.152832,152.329483 2386.179199,152.359558 
	C2382.867676,152.360641 2379.556152,152.716766 2375.678223,152.781799 
M4837.000000,1766.328125 
	C4882.545410,1766.328125 4928.090332,1766.328125 4973.723633,1766.328125 
	C5078.346191,1312.846313 5182.695312,860.551392 5287.250977,407.360596 
	C5443.697754,407.360596 5599.497559,407.360596 5755.464355,407.360596 
	C5774.459961,321.952972 5793.593750,237.632065 5812.124023,152.901489 
	C5406.541504,152.901489 5002.415527,152.901489 4597.562012,152.901489 
	C4579.414062,237.632156 4561.350098,321.970337 4542.987305,407.703430 
	C4698.876465,407.703430 4853.318848,407.703430 5008.769531,407.703430 
	C4993.558594,473.737549 4978.667969,538.464966 4963.737305,603.183228 
	C4948.870605,667.628601 4933.962402,732.064453 4919.073730,796.504883 
	C4904.110352,861.268921 4889.125977,926.028320 4874.193848,990.799744 
	C4859.336426,1055.248657 4844.569336,1119.718506 4829.694824,1184.163452 
	C4814.745605,1248.932373 4799.687012,1313.676270 4784.723145,1378.441895 
	C4769.834473,1442.882812 4754.925781,1507.319336 4740.167969,1571.790405 
	C4725.392578,1636.338501 4710.117188,1700.777100 4695.504883,1766.328125 
	C4743.086914,1766.328125 4789.043457,1766.328125 4837.000000,1766.328125 
M1772.888428,715.854492 
	C1692.563232,1065.617920 1612.238159,1415.381348 1531.760010,1765.810669 
	C1624.094482,1765.810669 1715.632080,1765.810669 1807.937134,1765.810669 
	C1931.303955,1228.242554 2054.648193,690.773193 2178.128906,152.709229 
	C2085.644775,152.709229 1994.399170,152.709229 1902.833496,152.709229 
	C1901.914551,155.410828 1900.850464,157.826126 1900.268921,160.352463 
	C1884.169312,230.302856 1868.114624,300.263611 1852.060669,370.224487 
	C1832.885498,453.787445 1813.692871,537.346436 1794.559814,620.919067 
	C1787.440063,652.018188 1780.467163,683.150879 1772.888428,715.854492 
M514.762634,545.847900 
	C519.185913,526.516785 523.609192,507.185608 527.964966,488.149323 
	C519.311096,483.094025 349.675507,442.346802 340.371704,443.056305 
	C333.463196,470.517914 326.620361,498.234375 321.523010,526.699158 
	C325.575836,527.966064 328.344055,529.015076 331.199921,529.697021 
	C386.717804,542.954102 442.237030,556.205933 497.792236,569.305237 
	C501.430511,570.163147 505.359863,569.786499 509.163208,569.984619 
	C511.064667,561.684875 512.693726,554.574097 514.762634,545.847900 
M471.808075,696.946411 
	C474.334991,697.107056 476.861908,697.267700 479.001312,697.403687 
	C479.749023,695.956360 480.190979,695.399536 480.337891,694.773499 
	C486.104767,670.196716 491.883209,645.622314 497.506531,621.012573 
	C497.905151,619.268127 497.136536,617.256958 496.945465,615.660706 
	C465.841888,605.976257 319.003510,572.213806 310.288116,573.005737 
	C307.179596,586.212158 303.976135,599.731750 300.818542,613.262085 
	C297.689056,626.672058 294.605774,640.092896 291.311157,654.334839 
	C351.881104,668.610474 411.054443,682.556946 471.808075,696.946411 
M460.274445,783.346191 
	C462.868652,769.784363 467.993500,756.662537 468.202393,742.007202 
	C454.968445,738.842773 442.396393,735.827820 429.820007,732.831055 
	C384.236389,721.968872 338.659332,711.078979 293.060944,700.279175 
	C282.105072,697.684326 281.144104,698.236267 278.720764,708.665955 
	C273.932739,729.272583 269.271820,749.909607 264.702789,770.565979 
	C262.824554,779.057373 263.391754,779.908630 272.304565,782.088257 
	C291.353607,786.746887 310.486023,791.068237 329.510406,795.823242 
	C355.558533,802.333679 381.492096,809.305786 407.567078,815.703735 
	C419.787964,818.702271 432.232513,820.783508 444.559814,823.356506 
	C449.119080,824.308105 451.312805,822.458374 452.293671,818.020691 
	C454.733185,806.983582 457.438385,796.005249 460.274445,783.346191 
M403.949219,947.120728 
	C406.868500,947.750671 409.793701,948.354614 412.705994,949.015381 
	C421.203308,950.943176 422.078949,950.368286 424.074738,941.661255 
	C428.375671,922.897522 432.619629,904.120117 437.063324,885.390137 
	C438.234406,880.453918 438.539368,875.720398 437.029999,871.080017 
	C435.597229,870.651001 434.657684,870.318909 433.693909,870.088196 
	C375.925079,856.261597 318.155884,842.436584 260.381683,828.632507 
	C252.601730,826.773682 251.872101,827.283569 249.827576,835.809021 
	C244.569946,857.732788 239.305069,879.654968 234.175140,901.608643 
	C233.760880,903.381470 234.357513,905.390442 234.506485,907.620544 
	C290.798065,920.675781 346.585327,933.614075 403.949219,947.120728 
M345.119263,954.000305 
	C307.152863,945.143738 269.186462,936.287170 231.220047,927.430664 
	C231.331268,930.011597 232.029190,931.448730 233.007584,931.675415 
	C283.606110,943.397644 334.091522,955.635193 385.115784,965.589172 
	C373.109894,959.049683 359.270996,958.942627 345.119263,954.000305 
M397.390167,969.731018 
	C399.968140,970.359070 402.517548,971.198914 405.132660,971.551025 
	C407.412415,971.858093 409.766205,971.615051 412.087280,971.615051 
	C404.725006,968.367249 397.658783,964.997803 387.431549,966.755005 
	C391.680786,967.976257 393.823181,968.592041 397.390167,969.731018 
z"/>
<path fill="#FF792A" opacity="1.000000" stroke="none" 
	d="
M3908.428223,154.512512 
	C3895.347900,176.141327 3882.406006,197.855331 3869.163086,219.384125 
	C3814.925049,307.556549 3760.577637,395.661743 3706.304443,483.812469 
	C3640.859131,590.108032 3575.445312,696.422791 3510.023682,802.732910 
	C3454.017578,893.742737 3398.026611,984.761963 3342.016113,1075.769043 
	C3284.620850,1169.025635 3227.200439,1262.266724 3169.807129,1355.524658 
	C3110.490479,1451.908447 3051.196533,1548.306274 2991.885498,1644.693848 
	C2967.987549,1683.531006 2944.021973,1722.326904 2920.247559,1761.239502 
	C2918.085693,1764.778320 2915.812988,1766.839722 2911.589600,1766.348389 
	C2910.274170,1766.195435 2908.926025,1766.328735 2907.592773,1766.328735 
	C2818.268311,1766.328979 2728.944092,1766.328857 2639.619629,1766.328857 
	C2636.655518,1766.328857 2633.691162,1766.328857 2629.801514,1766.328857 
	C2628.572754,1759.428101 2627.324951,1753.023560 2626.302246,1746.583252 
	C2616.306396,1683.634033 2606.303467,1620.685669 2596.390625,1557.723267 
	C2586.786621,1496.721436 2577.338623,1435.695190 2567.723389,1374.695190 
	C2559.453613,1322.231812 2551.002197,1269.797363 2542.710693,1217.337402 
	C2536.387207,1177.329956 2530.218506,1137.298096 2523.926025,1097.285767 
	C2517.633545,1057.275024 2511.248291,1017.278870 2504.947754,977.269409 
	C2498.595947,936.934631 2492.343750,896.584229 2485.964844,856.253845 
	C2479.585449,815.921875 2473.047363,775.614929 2466.682129,735.280823 
	C2460.472168,695.932373 2454.454346,656.553650 2448.239502,617.205994 
	C2441.765625,576.218872 2435.097900,535.262207 2428.625000,494.274902 
	C2423.082764,459.183685 2417.728516,424.062836 2412.232422,388.964325 
	C2405.914795,348.619232 2399.504150,308.288696 2393.186035,267.943665 
	C2387.331787,230.558624 2381.546143,193.162842 2376.036621,154.658966 
	C2376.343262,153.546143 2376.244629,152.907425 2376.244629,152.907425 
	C2379.556152,152.716766 2382.867676,152.360641 2386.179199,152.359558 
	C2478.152832,152.329483 2570.126221,152.335434 2662.099854,152.335419 
	C2665.692139,152.335419 2669.284668,152.335434 2673.688232,152.335434 
	C2730.508057,569.515808 2787.201904,985.771667 2843.838623,1401.607788 
	C2845.656738,1401.878174 2845.992432,1401.995483 2846.308350,1401.956177 
	C2846.627441,1401.916626 2846.977539,1401.783447 2847.224365,1401.581665 
	C2847.728760,1401.170288 2848.208984,1400.716064 2848.631104,1400.221680 
	C2849.061279,1399.718018 2849.438721,1399.162598 2849.787598,1398.598022 
	C2850.312744,1397.748047 2850.782715,1396.864258 2851.294678,1396.006226 
	C3098.363281,981.932861 3345.433350,567.860413 3592.509766,153.791779 
	C3592.677490,153.510727 3592.945801,153.289856 3593.747803,152.389053 
	C3697.436279,152.389053 3801.706543,152.389053 3906.955811,153.011993 
	C3908.099365,153.927460 3908.263916,154.219971 3908.428223,154.512512 
z"/>
<path fill="#FF792A" opacity="1.000000" stroke="none" 
	d="
M4836.000000,1766.328125 
	C4789.043457,1766.328125 4743.086914,1766.328125 4695.504883,1766.328125 
	C4710.117188,1700.777100 4725.392578,1636.338501 4740.167969,1571.790405 
	C4754.925781,1507.319336 4769.834473,1442.882812 4784.723145,1378.441895 
	C4799.687012,1313.676270 4814.745605,1248.932373 4829.694824,1184.163452 
	C4844.569336,1119.718506 4859.336426,1055.248657 4874.193848,990.799744 
	C4889.125977,926.028320 4904.110352,861.268921 4919.073730,796.504883 
	C4933.962402,732.064453 4948.870605,667.628601 4963.737305,603.183228 
	C4978.667969,538.464966 4993.558594,473.737549 5008.769531,407.703430 
	C4853.318848,407.703430 4698.876465,407.703430 4542.987305,407.703430 
	C4561.350098,321.970337 4579.414062,237.632156 4597.562012,152.901489 
	C5002.415527,152.901489 5406.541504,152.901489 5812.124023,152.901489 
	C5793.593750,237.632065 5774.459961,321.952972 5755.464355,407.360596 
	C5599.497559,407.360596 5443.697754,407.360596 5287.250977,407.360596 
	C5182.695312,860.551392 5078.346191,1312.846313 4973.723633,1766.328125 
	C4928.090332,1766.328125 4882.545410,1766.328125 4836.000000,1766.328125 
z"/>
<path fill="#FF792A" opacity="1.000000" stroke="none" 
	d="
M1271.898926,1771.435913 
	C1261.233032,1771.501831 1250.567139,1771.567749 1238.274414,1771.187256 
	C1230.408081,1770.975342 1224.168701,1771.209595 1217.929321,1771.443848 
	C1215.188354,1771.495972 1212.447388,1771.548096 1208.664429,1771.264160 
	C1206.917480,1770.662964 1206.343018,1770.832764 1205.899048,1771.437256 
	C1189.244263,1771.501465 1172.589355,1771.565552 1154.778564,1771.312012 
	C1152.936768,1770.736450 1152.369141,1770.893799 1151.919556,1771.466553 
	C1138.546021,1771.563354 1125.172363,1771.660034 1110.933838,1771.740112 
	C1110.068848,1771.723389 1109.846680,1771.341187 1109.104248,1771.040283 
	C1105.387207,1770.500000 1102.412720,1770.053467 1099.437866,1770.051636 
	C1015.212036,1769.998047 930.986206,1769.968384 846.760437,1770.046631 
	C843.203064,1770.049927 839.646790,1771.122192 836.088867,1771.852783 
	C836.087830,1772.009033 836.097961,1772.321289 835.192566,1772.227417 
	C828.833130,1772.278442 823.379028,1772.423340 817.924988,1772.568237 
	C813.604492,1772.484985 809.284058,1772.330322 804.963562,1772.329102 
	C683.884033,1772.294922 562.804504,1772.276611 441.724976,1772.246704 
	C440.397827,1772.246338 439.070709,1772.125610 436.150513,1771.457275 
	C430.861694,1770.695190 427.165894,1770.536743 423.470093,1770.378418 
	C384.079071,1765.999878 348.688843,1752.702393 320.483093,1723.724976 
	C304.574982,1707.381592 295.294373,1687.079712 288.515350,1665.820679 
	C283.907593,1651.370728 281.579620,1636.193848 278.266296,1619.896973 
	C278.175873,1617.647705 278.051270,1616.843628 277.926697,1616.039551 
	C277.824646,1615.262573 277.722626,1614.485596 277.777069,1612.158203 
	C277.902130,1592.377563 277.870697,1574.147217 277.839233,1555.916992 
	C280.153748,1542.200195 281.791443,1528.327393 284.907227,1514.795166 
	C295.022125,1470.864746 305.746216,1427.075073 316.105072,1383.200317 
	C324.557495,1347.400391 332.822540,1311.556152 341.166931,1275.747681 
	C321.642059,1269.514160 302.028198,1263.781982 282.798676,1256.965576 
	C263.112061,1249.987183 246.322586,1237.956055 232.320969,1222.664307 
	C209.328522,1197.553467 197.395508,1167.389282 194.236603,1131.861572 
	C194.019196,1117.342041 193.897964,1104.567871 193.776764,1091.793701 
	C198.016159,1068.621338 201.834335,1045.361450 206.616913,1022.301758 
	C211.134293,1000.520630 216.657059,978.947693 221.768219,957.290405 
	C222.138718,955.720398 222.758240,954.209167 223.594604,951.654663 
	C227.637253,952.241394 231.494019,952.531555 235.220688,953.387939 
	C252.607803,957.383545 269.953857,961.557434 287.324097,965.627075 
	C331.966309,976.086182 376.622253,986.486877 421.250458,997.005249 
	C428.963684,998.823242 436.572174,1001.088135 444.220459,1003.178040 
	C448.207428,1004.267517 452.904358,1001.470886 454.197113,996.594543 
	C456.664124,987.288940 458.894531,977.916626 461.036560,968.529419 
	C471.603668,922.220093 482.029663,875.878418 492.656464,829.582886 
	C507.269775,765.920166 522.033569,702.292053 536.705017,638.642700 
	C549.093323,584.898376 561.937500,531.251770 573.563782,477.342743 
	C578.195435,455.866516 589.773193,440.566406 607.828430,429.445190 
	C626.833618,417.738831 647.465210,410.828888 671.697754,409.829163 
	C682.540833,409.841736 691.569275,409.711273 700.597778,409.580811 
	C733.299194,410.854706 763.089722,421.557953 790.981628,437.980469 
	C816.983337,453.290039 838.374573,473.430847 853.101624,500.045074 
	C856.435852,506.070496 859.254822,512.490784 861.372009,519.033142 
	C862.414307,522.253723 861.897095,526.305359 861.089294,529.747070 
	C854.027771,559.833191 846.668030,589.849182 839.539124,619.919739 
	C830.493652,658.075378 821.608398,696.268982 812.605164,734.434570 
	C799.475037,790.094910 785.937805,845.662109 773.229370,901.418335 
	C752.920837,990.519104 733.110657,1079.733643 713.168640,1168.917725 
	C702.514465,1216.565063 692.294250,1264.311157 681.379578,1311.898315 
	C672.099243,1352.360352 662.056519,1392.646973 652.453125,1433.035522 
	C649.377991,1445.968384 646.628662,1458.978638 643.186584,1473.333984 
	C642.553711,1476.260986 642.464478,1477.807373 642.352112,1479.755493 
	C647.227539,1479.755493 651.691162,1479.755493 656.154785,1479.755493 
	C656.154785,1479.755493 657.023743,1480.152954 657.695984,1480.544434 
	C658.368225,1480.935913 659.306946,1481.060547 659.306946,1481.060547 
	C659.306946,1481.060547 660.093933,1480.543579 660.093933,1480.543579 
	C671.424255,1480.484009 682.754517,1480.424561 695.574951,1480.828369 
	C700.070984,1481.058594 703.076904,1480.825439 706.082825,1480.592285 
	C717.417236,1480.527222 728.751709,1480.462158 741.368835,1480.787842 
	C743.782104,1480.963501 744.912659,1480.748535 746.043213,1480.533447 
	C747.535889,1480.473999 749.028503,1480.414551 751.994934,1480.806641 
	C755.763367,1481.497681 758.058105,1481.945679 760.352661,1481.944580 
	C788.812439,1481.931030 817.272156,1481.852173 846.694702,1481.847168 
	C865.882568,1481.839355 884.107544,1481.774658 903.242310,1481.789062 
	C916.258911,1481.717041 928.365723,1481.566040 940.472595,1481.414917 
	C967.009155,1481.481445 993.545654,1481.547974 1021.534180,1481.665039 
	C1023.333191,1481.606323 1023.680176,1481.497192 1024.027100,1481.387939 
	C1025.521851,1481.447388 1027.016724,1481.506714 1029.905762,1481.686646 
	C1032.194336,1481.692261 1033.088745,1481.577271 1033.983154,1481.462402 
	C1042.042480,1481.526978 1050.101807,1481.591797 1059.747559,1481.771973 
	C1062.243042,1481.758301 1063.152344,1481.629028 1064.061523,1481.499756 
	C1079.407593,1481.542480 1094.753662,1481.585083 1111.947876,1481.708496 
	C1150.535278,1481.826050 1187.274658,1481.863037 1224.013916,1481.900146 
	C1224.013916,1481.900146 1223.996582,1482.120361 1224.169678,1482.485107 
	C1224.342651,1482.849976 1225.247925,1483.042358 1225.247925,1483.042358 
	C1225.247925,1483.042358 1226.036987,1482.568726 1226.036987,1482.568726 
	C1229.487061,1482.504395 1232.937012,1482.439941 1237.657471,1482.815674 
	C1240.569336,1483.041504 1242.210938,1482.827026 1243.852417,1482.612549 
	C1248.687744,1482.541992 1253.522949,1482.471558 1259.572998,1482.793213 
	C1261.831421,1482.974365 1262.875000,1482.763428 1263.918701,1482.552490 
	C1266.765259,1482.485962 1269.611816,1482.419434 1274.017822,1482.817871 
	C1278.866211,1483.520996 1282.154907,1483.960083 1285.444214,1483.965820 
	C1313.616333,1484.015381 1341.788574,1483.986450 1369.960693,1483.980957 
	C1373.682861,1486.468506 1372.101318,1489.928467 1371.390381,1493.011597 
	C1357.305542,1554.086060 1343.138062,1615.141235 1329.017212,1676.207275 
	C1322.516968,1704.317627 1316.099854,1732.447388 1309.585205,1760.554443 
	C1308.915771,1763.442017 1307.834473,1766.234009 1305.749023,1769.502686 
	C1303.013306,1770.428711 1301.472656,1770.922729 1299.932129,1771.416748 
	C1291.922974,1771.477783 1283.913818,1771.538696 1274.763672,1771.263794 
	C1272.917603,1770.662109 1272.343140,1770.831543 1271.898926,1771.435913 
z"/>
<path fill="#FE792A" opacity="1.000000" stroke="none" 
	d="
M1773.157837,715.061401 
	C1780.467163,683.150879 1787.440063,652.018188 1794.559814,620.919067 
	C1813.692871,537.346436 1832.885498,453.787445 1852.060669,370.224487 
	C1868.114624,300.263611 1884.169312,230.302856 1900.268921,160.352463 
	C1900.850464,157.826126 1901.914551,155.410828 1902.833496,152.709229 
	C1994.399170,152.709229 2085.644775,152.709229 2178.128906,152.709229 
	C2054.648193,690.773193 1931.303955,1228.242554 1807.937134,1765.810669 
	C1715.632080,1765.810669 1624.094482,1765.810669 1531.760010,1765.810669 
	C1612.238159,1415.381348 1692.563232,1065.617920 1773.157837,715.061401 
z"/>
<path fill="#FE792A" opacity="1.000000" stroke="none" 
	d="
M4394.458496,158.633118 
	C4390.024902,178.740799 4385.719727,198.877655 4381.135254,218.950958 
	C4364.788574,290.532135 4348.357422,362.093994 4331.938965,433.658752 
	C4315.739258,504.271729 4299.516602,574.879333 4283.302246,645.488708 
	C4266.938965,716.744202 4250.569824,787.998352 4234.210938,859.254883 
	C4218.594238,927.276733 4202.980469,995.299316 4187.377441,1063.324341 
	C4170.214355,1138.151733 4153.101074,1212.990601 4135.899414,1287.809204 
	C4119.516602,1359.064819 4102.993652,1430.288208 4086.633057,1501.548828 
	C4068.338135,1581.234253 4050.165039,1660.947754 4031.913818,1740.643188 
	C4029.993896,1749.027588 4027.906250,1757.373535 4025.894775,1765.744873 
	C3933.816895,1765.744873 3842.297119,1765.744873 3749.990723,1765.744873 
	C3873.503662,1227.710815 3996.849609,690.403625 4120.253418,152.844559 
	C4123.426758,152.652954 4126.051270,152.356674 4128.676270,152.355942 
	C4215.004395,152.331696 4301.332520,152.318588 4387.660645,152.416931 
	C4390.313965,152.419952 4392.966309,153.624527 4395.224609,155.475204 
	C4394.706543,157.332047 4394.582520,157.982590 4394.458496,158.633118 
z"/>
<path fill="#FE782A" opacity="1.000000" stroke="none" 
	d="
M662.391724,151.734589 
	C682.105591,154.431824 701.944458,156.435577 721.508789,159.962250 
	C771.184692,168.916855 818.731262,184.611206 863.829834,207.390884 
	C879.272949,215.191315 894.445496,223.576340 907.201111,235.534256 
	C911.052490,239.144821 914.646240,243.116165 917.851624,247.309311 
	C922.440186,253.311874 924.354858,259.774078 922.405823,267.742859 
	C916.409912,292.257233 911.255859,316.976044 905.453186,341.539459 
	C896.538269,379.277618 887.368713,416.955688 878.257080,454.647125 
	C877.680115,457.033966 876.670715,459.316284 875.165527,463.657440 
	C864.824707,451.424164 856.570496,439.874451 846.491028,430.232788 
	C836.235107,420.422241 824.804565,411.484619 812.742065,404.016205 
	C800.377197,396.360535 786.964844,390.067383 773.380859,384.803894 
	C760.122192,379.666412 746.250977,375.676758 732.310425,372.853607 
	C718.386780,370.033875 704.043701,369.284729 688.300903,367.141479 
	C681.125366,366.925415 675.533508,367.195679 669.941650,367.465942 
	C650.289795,368.694550 630.999207,371.786255 612.312805,378.246643 
	C579.257324,389.674896 553.036560,409.039001 538.115051,442.933472 
	C475.970551,427.985352 414.099915,413.103119 350.994904,397.923950 
	C352.711823,389.094452 354.202057,381.149780 355.813782,373.229828 
	C357.134277,366.741302 358.514801,360.262360 360.027527,353.816437 
	C361.217773,348.744598 362.770782,343.757751 363.953918,338.684479 
	C368.706421,318.305603 372.700562,297.722351 378.223816,277.556671 
	C388.815735,238.885117 412.500000,209.666321 445.996735,188.280884 
	C477.005463,168.483871 510.792511,156.061920 547.419617,151.716507 
	C553.010254,151.053238 558.640991,150.728500 565.959595,150.153656 
	C570.467957,149.857010 573.269897,149.653900 576.071838,149.450806 
	C578.038757,149.489166 580.005615,149.527527 583.633118,149.680008 
	C591.416077,149.767807 597.538513,149.741470 604.578613,149.796295 
	C610.355469,149.829758 615.214722,149.782059 620.073914,149.734344 
	C626.755981,149.703171 633.438110,149.671982 641.760742,149.745880 
	C644.922913,149.823273 646.444641,149.795593 647.966309,149.767899 
	C648.292114,149.899811 648.617981,150.031738 650.130066,150.692352 
	C655.008057,151.392227 658.699890,151.563416 662.391724,151.734589 
z"/>
<path fill="#FD7829" opacity="1.000000" stroke="none" 
	d="
M514.542725,546.655640 
	C512.693726,554.574097 511.064667,561.684875 509.163208,569.984619 
	C505.359863,569.786499 501.430511,570.163147 497.792236,569.305237 
	C442.237030,556.205933 386.717804,542.954102 331.199921,529.697021 
	C328.344055,529.015076 325.575836,527.966064 321.523010,526.699158 
	C326.620361,498.234375 333.463196,470.517914 340.371704,443.056305 
	C349.675507,442.346802 519.311096,483.094025 527.964966,488.149323 
	C523.609192,507.185608 519.185913,526.516785 514.542725,546.655640 
z"/>
<path fill="#FD7729" opacity="1.000000" stroke="none" 
	d="
M471.017944,696.724915 
	C411.054443,682.556946 351.881104,668.610474 291.311157,654.334839 
	C294.605774,640.092896 297.689056,626.672058 300.818542,613.262085 
	C303.976135,599.731750 307.179596,586.212158 310.288116,573.005737 
	C319.003510,572.213806 465.841888,605.976257 496.945465,615.660706 
	C497.136536,617.256958 497.905151,619.268127 497.506531,621.012573 
	C491.883209,645.622314 486.104767,670.196716 480.337891,694.773499 
	C480.190979,695.399536 479.749023,695.956360 479.001312,697.403687 
	C476.861908,697.267700 474.334991,697.107056 471.017944,696.724915 
z"/>
<path fill="#FD7729" opacity="1.000000" stroke="none" 
	d="
M460.155670,784.174744 
	C457.438385,796.005249 454.733185,806.983582 452.293671,818.020691 
	C451.312805,822.458374 449.119080,824.308105 444.559814,823.356506 
	C432.232513,820.783508 419.787964,818.702271 407.567078,815.703735 
	C381.492096,809.305786 355.558533,802.333679 329.510406,795.823242 
	C310.486023,791.068237 291.353607,786.746887 272.304565,782.088257 
	C263.391754,779.908630 262.824554,779.057373 264.702789,770.565979 
	C269.271820,749.909607 273.932739,729.272583 278.720764,708.665955 
	C281.144104,698.236267 282.105072,697.684326 293.060944,700.279175 
	C338.659332,711.078979 384.236389,721.968872 429.820007,732.831055 
	C442.396393,735.827820 454.968445,738.842773 468.202393,742.007202 
	C467.993500,756.662537 462.868652,769.784363 460.155670,784.174744 
z"/>
<path fill="#FD7829" opacity="1.000000" stroke="none" 
	d="
M403.160919,946.836548 
	C346.585327,933.614075 290.798065,920.675781 234.506485,907.620544 
	C234.357513,905.390442 233.760880,903.381470 234.175140,901.608643 
	C239.305069,879.654968 244.569946,857.732788 249.827576,835.809021 
	C251.872101,827.283569 252.601730,826.773682 260.381683,828.632507 
	C318.155884,842.436584 375.925079,856.261597 433.693909,870.088196 
	C434.657684,870.318909 435.597229,870.651001 437.029999,871.080017 
	C438.539368,875.720398 438.234406,880.453918 437.063324,885.390137 
	C432.619629,904.120117 428.375671,922.897522 424.074738,941.661255 
	C422.078949,950.368286 421.203308,950.943176 412.705994,949.015381 
	C409.793701,948.354614 406.868500,947.750671 403.160919,946.836548 
z"/>
<path fill="#D15A04" opacity="1.000000" stroke="none" 
	d="
M345.941467,954.134644 
	C359.270996,958.942627 373.109894,959.049683 385.115784,965.589172 
	C334.091522,955.635193 283.606110,943.397644 233.007584,931.675415 
	C232.029190,931.448730 231.331268,930.011597 231.220047,927.430664 
	C269.186462,936.287170 307.152863,945.143738 345.941467,954.134644 
z"/>
<path fill="#3F0000" opacity="1.000000" stroke="none" 
	d="
M1110.011963,1771.937012 
	C1106.751221,1772.765869 1103.547607,1773.916016 1100.343262,1773.918335 
	C1012.872009,1773.980713 925.400757,1773.926025 837.007324,1773.473633 
	C836.085144,1773.056396 836.097961,1772.321289 836.097961,1772.321289 
	C836.097961,1772.321289 836.087830,1772.009033 837.006714,1771.967896 
	C925.923401,1771.956177 1013.921204,1771.991333 1101.918945,1771.986328 
	C1104.561523,1771.986206 1107.204102,1771.565674 1109.846680,1771.341187 
	C1109.846680,1771.341187 1110.068848,1771.723389 1110.011963,1771.937012 
z"/>
<path fill="#3F1F06" opacity="1.000000" stroke="none" 
	d="
M1223.299805,1481.488403 
	C1187.274658,1481.863037 1150.535278,1481.826050 1112.876465,1481.597900 
	C1114.842529,1480.912231 1117.727539,1479.992310 1120.613770,1479.988647 
	C1152.331055,1479.947998 1184.048706,1480.030640 1215.765869,1480.154297 
	C1218.040283,1480.163086 1220.312378,1480.755493 1223.299805,1481.488403 
z"/>
<path fill="#BF6714" opacity="1.000000" stroke="none" 
	d="
M1369.428223,1483.314941 
	C1341.788574,1483.986450 1313.616333,1484.015381 1285.444214,1483.965820 
	C1282.154907,1483.960083 1278.866211,1483.520996 1274.868164,1482.907959 
	C1298.781616,1482.362061 1323.403931,1482.135498 1348.026611,1482.055542 
	C1354.982300,1482.032959 1361.939453,1482.439209 1369.428223,1483.314941 
z"/>
<path fill="#BF561C" opacity="1.000000" stroke="none" 
	d="
M845.731934,1481.790161 
	C817.272156,1481.852173 788.812439,1481.931030 760.352661,1481.944580 
	C758.058105,1481.945679 755.763367,1481.497681 752.738037,1480.893188 
	C768.317444,1480.351929 784.627136,1480.108521 800.937622,1480.019775 
	C815.265320,1479.941772 829.593994,1480.037109 844.840210,1480.553955 
	C845.758118,1481.052002 845.731934,1481.790161 845.731934,1481.790161 
z"/>
<path fill="#D15A04" opacity="1.000000" stroke="none" 
	d="
M277.304810,1556.520508 
	C277.870697,1574.147217 277.902130,1592.377563 277.788544,1611.570312 
	C277.071564,1608.918335 276.499603,1605.304077 275.865723,1599.960449 
	C275.787079,1589.503906 275.770416,1580.776367 275.753754,1572.048950 
	C276.092651,1567.073975 276.431519,1562.098999 277.304810,1556.520508 
z"/>
<path fill="#BF9E0A" opacity="1.000000" stroke="none" 
	d="
M846.694702,1481.847168 
	C845.731934,1481.790161 845.758118,1481.052002 845.753784,1480.682861 
	C863.964172,1480.226196 882.178894,1480.138672 901.347778,1480.534912 
	C902.301880,1481.018799 902.332581,1481.709839 902.332581,1481.709839 
	C884.107544,1481.774658 865.882568,1481.839355 846.694702,1481.847168 
z"/>
<path fill="#BF6714" opacity="1.000000" stroke="none" 
	d="
M396.677856,969.469360 
	C393.823181,968.592041 391.680786,967.976257 387.431549,966.755005 
	C397.658783,964.997803 404.725006,968.367249 412.087280,971.615051 
	C409.766205,971.615051 407.412415,971.858093 405.132660,971.551025 
	C402.517548,971.198914 399.968140,970.359070 396.677856,969.469360 
z"/>
<path fill="#3F0000" opacity="1.000000" stroke="none" 
	d="
M193.347839,1092.521973 
	C193.897964,1104.567871 194.019196,1117.342041 194.050659,1131.046387 
	C193.308929,1129.170898 192.093155,1126.362793 192.106216,1123.560425 
	C192.153259,1113.455933 192.614258,1103.353516 193.347839,1092.521973 
z"/>
<path fill="#BF2009" opacity="1.000000" stroke="none" 
	d="
M903.242310,1481.789062 
	C902.332581,1481.709839 902.301880,1481.018799 902.294189,1480.673096 
	C914.556091,1480.344360 926.825745,1480.361328 939.783936,1480.896606 
	C928.365723,1481.566040 916.258911,1481.717041 903.242310,1481.789062 
z"/>
<path fill="#3F0000" opacity="1.000000" stroke="none" 
	d="
M275.346741,1572.750122 
	C275.770416,1580.776367 275.787079,1589.503906 275.710175,1599.165039 
	C275.390961,1591.216309 275.165344,1582.333740 275.346741,1572.750122 
z"/>
<path fill="#BF561C" opacity="1.000000" stroke="none" 
	d="
M699.909912,409.048462 
	C691.569275,409.711273 682.540833,409.841736 672.559082,409.852539 
	C680.811218,409.327301 690.016602,408.921722 699.909912,409.048462 
z"/>
<path fill="#BF5A1F" opacity="1.000000" stroke="none" 
	d="
M1218.822266,1771.657959 
	C1224.168701,1771.209595 1230.408081,1770.975342 1237.345947,1771.099243 
	C1231.934692,1771.595581 1225.824951,1771.733765 1218.822266,1771.657959 
z"/>
<path fill="#BF2009" opacity="1.000000" stroke="none" 
	d="
M603.660889,149.715134 
	C597.538513,149.741470 591.416077,149.767807 584.370483,149.628815 
	C589.626831,149.000214 595.806335,148.536942 602.842468,148.546967 
	C603.699036,149.020279 603.660889,149.715134 603.660889,149.715134 
z"/>
<path fill="#3F1F00" opacity="1.000000" stroke="none" 
	d="
M835.192566,1772.227417 
	C836.097961,1772.321289 836.085144,1773.056396 836.075439,1773.422363 
	C830.489563,1773.632568 824.913513,1773.476562 818.631226,1772.944336 
	C823.379028,1772.423340 828.833130,1772.278442 835.192566,1772.227417 
z"/>
<path fill="#3F0000" opacity="1.000000" stroke="none" 
	d="
M655.521912,1479.349121 
	C651.691162,1479.755493 647.227539,1479.755493 642.352112,1479.755493 
	C642.464478,1477.807373 642.553711,1476.260986 643.173462,1474.128784 
	C645.411743,1479.528198 651.180908,1477.100952 655.521912,1479.349121 
z"/>
<path fill="#BF561C" opacity="1.000000" stroke="none" 
	d="
M670.827637,367.671814 
	C675.533508,367.195679 681.125366,366.925415 687.391357,367.036438 
	C682.614868,367.571045 677.164246,367.724365 670.827637,367.671814 
z"/>
<path fill="#BF9E0A" opacity="1.000000" stroke="none" 
	d="
M604.578613,149.796295 
	C603.660889,149.715134 603.699036,149.020279 603.709778,148.672760 
	C608.852356,148.348511 613.984192,148.371796 619.594971,149.064697 
	C615.214722,149.782059 610.355469,149.829758 604.578613,149.796295 
z"/>
<path fill="#BF561C" opacity="1.000000" stroke="none" 
	d="
M424.084656,1770.853516 
	C427.165894,1770.536743 430.861694,1770.695190 435.223328,1771.261963 
	C435.889191,1771.670532 436.398254,1771.935059 435.736633,1772.045898 
	C434.708191,1772.206055 434.341431,1772.255249 433.974640,1772.304321 
	C430.882812,1771.979126 427.791016,1771.653809 424.084656,1770.853516 
z"/>
<path fill="#BF561C" opacity="1.000000" stroke="none" 
	d="
M661.771790,151.225372 
	C658.699890,151.563416 655.008057,151.392227 650.634399,150.846252 
	C653.685669,150.553024 657.418762,150.634583 661.771790,151.225372 
z"/>
<path fill="#3F1E0A" opacity="1.000000" stroke="none" 
	d="
M575.491028,149.108185 
	C573.269897,149.653900 570.467957,149.857010 566.823364,149.975159 
	C568.957275,149.515305 571.933716,149.140427 575.491028,149.108185 
z"/>
<path fill="#BF561C" opacity="1.000000" stroke="none" 
	d="
M705.256836,1480.373535 
	C703.076904,1480.825439 700.070984,1481.058594 696.501953,1480.928711 
	C698.769531,1480.428833 701.600159,1480.291870 705.256836,1480.373535 
z"/>
<path fill="#BF6714" opacity="1.000000" stroke="none" 
	d="
M1243.150391,1482.400024 
	C1242.210938,1482.827026 1240.569336,1483.041504 1238.514038,1482.925293 
	C1239.549561,1482.458984 1240.998901,1482.323242 1243.150391,1482.400024 
z"/>
<path fill="#3F1F06" opacity="1.000000" stroke="none" 
	d="
M647.541992,149.409286 
	C646.444641,149.795593 644.922913,149.823273 642.665771,149.635162 
	C643.659424,149.296494 645.388550,149.173584 647.541992,149.409286 
z"/>
<path fill="#BF5A1F" opacity="1.000000" stroke="none" 
	d="
M1300.568726,1771.627319 
	C1301.472656,1770.922729 1303.013306,1770.428711 1305.168579,1769.988037 
	C1304.257324,1770.640137 1302.731323,1771.239014 1300.568726,1771.627319 
z"/>
<path fill="#3F1F06" opacity="1.000000" stroke="none" 
	d="
M1033.644531,1481.159180 
	C1033.088745,1481.577271 1032.194336,1481.692261 1030.649414,1481.595703 
	C1031.101318,1481.208130 1032.203613,1481.032104 1033.644531,1481.159180 
z"/>
<path fill="#BF561C" opacity="1.000000" stroke="none" 
	d="
M745.368286,1480.334717 
	C744.912659,1480.748535 743.782104,1480.963501 742.296997,1480.877686 
	C742.859436,1480.429810 743.776428,1480.282715 745.368286,1480.334717 
z"/>
<path fill="#D15A04" opacity="1.000000" stroke="none" 
	d="
M277.698608,1616.369873 
	C278.051270,1616.843628 278.175873,1617.647705 278.195343,1619.055786 
	C277.883636,1618.673218 277.677063,1617.686646 277.698608,1616.369873 
z"/>
<path fill="#3F1F06" opacity="1.000000" stroke="none" 
	d="
M1063.708252,1481.204590 
	C1063.152344,1481.629028 1062.243042,1481.758301 1060.670654,1481.679932 
	C1061.123169,1481.284790 1062.239014,1481.097168 1063.708252,1481.204590 
z"/>
<path fill="#BF6714" opacity="1.000000" stroke="none" 
	d="
M1263.300415,1482.357178 
	C1262.875000,1482.763428 1261.831421,1482.974365 1260.474731,1482.892090 
	C1261.001831,1482.453125 1261.842041,1482.307617 1263.300415,1482.357178 
z"/>
<path fill="#3F1F06" opacity="1.000000" stroke="none" 
	d="
M1023.815186,1481.145386 
	C1023.680176,1481.497192 1023.333191,1481.606323 1022.462646,1481.563843 
	C1022.357788,1480.809326 1022.912537,1480.639526 1023.815186,1481.145386 
z"/>
<path fill="#BF561C" opacity="1.000000" stroke="none" 
	d="
M659.559448,1480.368652 
	C660.093933,1480.543579 659.306946,1481.060547 659.306946,1481.060547 
	C659.306946,1481.060547 658.368225,1480.935913 658.149536,1480.694824 
	C658.295532,1480.367065 658.660278,1480.280396 659.559448,1480.368652 
z"/>
<path fill="#BF5A1F" opacity="1.000000" stroke="none" 
	d="
M1152.459717,1771.626221 
	C1152.369141,1770.893799 1152.936768,1770.736450 1153.849731,1771.225586 
	C1153.717896,1771.566406 1153.358765,1771.676270 1152.459717,1771.626221 
z"/>
<path fill="#BF5A1F" opacity="1.000000" stroke="none" 
	d="
M1206.443481,1771.592285 
	C1206.343018,1770.832764 1206.917480,1770.662964 1207.846436,1771.171387 
	C1207.709595,1771.525513 1207.348755,1771.636353 1206.443481,1771.592285 
z"/>
<path fill="#BF5A1F" opacity="1.000000" stroke="none" 
	d="
M4394.898438,158.314636 
	C4394.582520,157.982590 4394.706543,157.332047 4395.172363,156.305695 
	C4395.455566,156.618637 4395.396973,157.307388 4394.898438,158.314636 
z"/>
<path fill="#BF5A1F" opacity="1.000000" stroke="none" 
	d="
M1272.443359,1771.591309 
	C1272.343140,1770.831543 1272.917603,1770.662109 1273.846436,1771.171143 
	C1273.709595,1771.525269 1273.348755,1771.636108 1272.443359,1771.591309 
z"/>
<path fill="#3F1F00" opacity="1.000000" stroke="none" 
	d="
M434.206726,1772.499756 
	C434.341431,1772.255249 434.708191,1772.206055 435.610199,1772.303345 
	C436.145416,1772.449951 435.330017,1772.810669 435.330017,1772.810669 
	C435.330017,1772.810669 434.438843,1772.695190 434.206726,1772.499756 
z"/>
<path fill="#BF5A1F" opacity="1.000000" stroke="none" 
	d="
M3908.832520,154.241058 
	C3908.263916,154.219971 3908.099365,153.927460 3907.873779,153.135254 
	C3908.287354,153.080261 3908.761963,153.524948 3908.832520,154.241058 
z"/>
<path fill="#BF5A1F" opacity="1.000000" stroke="none" 
	d="
M2375.961426,152.844604 
	C2376.244629,152.907425 2376.343262,153.546143 2376.145508,153.801727 
	C2375.947998,154.057312 2375.368408,153.514069 2375.368408,153.514069 
	C2375.368408,153.514069 2375.678223,152.781799 2375.961426,152.844604 
z"/>
<path fill="#BF6714" opacity="1.000000" stroke="none" 
	d="
M1225.532959,1482.379761 
	C1226.036987,1482.568726 1225.247925,1483.042358 1225.247925,1483.042358 
	C1225.247925,1483.042358 1224.342651,1482.849976 1224.152588,1482.594238 
	C1224.318115,1482.289307 1224.673584,1482.239990 1225.532959,1482.379761 
z"/>
<path fill="#FF571C" opacity="1.000000" stroke="none" 
	d="
M1109.104248,1771.040283 
	C1107.204102,1771.565674 1104.561523,1771.986206 1101.918945,1771.986328 
	C1013.921204,1771.991333 925.923401,1771.956177 837.007812,1771.811646 
	C839.646790,1771.122192 843.203064,1770.049927 846.760437,1770.046631 
	C930.986206,1769.968384 1015.212036,1769.998047 1099.437866,1770.051636 
	C1102.412720,1770.053467 1105.387207,1770.500000 1109.104248,1771.040283 
z"/>
</svg>